<svg width="513" height="616" viewBox="0 0 513 616" fill="none" xmlns="http://www.w3.org/2000/svg">
<g opacity="0.288">
<path fill-rule="evenodd" clip-rule="evenodd" d="M283.644 230.746C288.791 293.127 263.119 338.933 216.176 369.36C169.322 399.797 101.286 414.865 66.317 385.344C31.3579 355.735 29.3766 281.525 58.2818 211.703C87.1088 141.782 146.734 76.239 194.573 82.951C242.423 89.5744 278.488 168.453 283.644 230.746Z" fill="#F4ECFF"/>
</g>
<path opacity="0.906" fill-rule="evenodd" clip-rule="evenodd" d="M43.4519 300.926L61.7497 303.048C65.7556 303.512 67.1598 304.098 68.5335 305.051C69.9072 306.004 70.9233 307.286 71.5367 308.841C72.1501 310.397 72.3988 311.898 71.9344 315.904L68.0419 349.479C67.5775 353.484 66.992 354.889 66.039 356.262C65.086 357.636 63.8035 358.652 62.2482 359.266C60.6929 359.879 59.1919 360.128 55.186 359.663L36.8883 357.542C32.8824 357.078 31.4781 356.492 30.1045 355.539C28.7308 354.586 27.7147 353.303 27.1013 351.748C26.4878 350.193 26.2391 348.692 26.7036 344.686L30.596 311.111C31.0604 307.105 31.6459 305.701 32.5989 304.327C33.5519 302.954 34.8345 301.937 36.3898 301.324C37.9451 300.711 39.4461 300.462 43.4519 300.926Z" fill="#EEEEEF"/>
<path opacity="0.866" fill-rule="evenodd" clip-rule="evenodd" d="M35.8465 366.529L54.1442 368.65C58.1501 369.114 59.5544 369.7 60.928 370.653C62.3017 371.606 63.3178 372.888 63.9312 374.444C64.5447 375.999 64.7934 377.5 64.3289 381.506L60.4365 415.081C59.9721 419.087 59.3866 420.491 58.4336 421.865C57.4806 423.238 56.198 424.254 54.6427 424.868C53.0874 425.481 51.5864 425.73 47.5806 425.266L29.2828 423.144C25.2769 422.68 23.8727 422.094 22.499 421.141C21.1253 420.188 20.1092 418.906 19.4958 417.35C18.8824 415.795 18.6337 414.294 19.0981 410.288L22.9906 376.713C23.455 372.707 24.0405 371.303 24.9935 369.929C25.9465 368.556 27.229 367.54 28.7843 366.926C30.3396 366.313 31.8406 366.064 35.8465 366.529Z" fill="#EEEEEF"/>
<path fill-rule="evenodd" clip-rule="evenodd" d="M85.5071 354.526L103.805 356.648C107.811 357.112 109.215 357.698 110.589 358.651C111.962 359.604 112.978 360.886 113.592 362.442C114.205 363.997 114.454 365.498 113.99 369.504L111.556 390.497C111.091 394.503 110.506 395.908 109.553 397.281C108.6 398.655 107.317 399.671 105.762 400.284C104.207 400.898 102.706 401.147 98.6998 400.682L80.402 398.561C76.3961 398.096 74.9919 397.511 73.6182 396.558C72.2445 395.605 71.2284 394.322 70.615 392.767C70.0016 391.212 69.7529 389.711 70.2173 385.705L72.6512 364.711C73.1156 360.705 73.7011 359.301 74.6541 357.927C75.6071 356.554 76.8897 355.538 78.4449 354.924C80.0002 354.311 81.5012 354.062 85.5071 354.526Z" fill="#EDEDEE"/>
<path fill-rule="evenodd" clip-rule="evenodd" d="M92.6408 105C93.8051 114.251 95.4707 121.017 97.6378 125.298C106.813 143.425 118.453 150.218 121.523 165.098C125.681 185.249 135.265 165.269 150.274 105.16L139.286 95.7658L92.6408 105Z" fill="#0A1B45" stroke="#2C2C2C"/>
<path fill-rule="evenodd" clip-rule="evenodd" d="M245.536 64.1574C245.832 69.4111 241.82 73.9096 236.574 74.2051L220.743 75.0976L152.756 78.9307C147.527 79.2255 143.049 75.2055 142.753 69.9521C142.457 64.6984 146.456 60.2008 151.684 59.906L219.672 56.073L235.502 55.1804C240.748 54.8849 245.24 58.904 245.536 64.1574Z" fill="#8C6345" stroke="#2C2C2C"/>
<path fill-rule="evenodd" clip-rule="evenodd" d="M247.653 70.9783C247.733 72.411 246.639 73.6379 245.209 73.7186L229.954 74.5785C228.523 74.6592 227.298 73.5631 227.218 72.1303C227.137 70.6973 228.231 69.4704 229.662 69.39L244.916 68.5301C246.347 68.4494 247.572 69.5452 247.653 70.9783Z" fill="#8C6345" stroke="#2C2C2C"/>
<path fill-rule="evenodd" clip-rule="evenodd" d="M247.969 66.3338C248.049 67.7666 246.955 68.9935 245.525 69.0742L240.419 69.3619C238.988 69.4426 237.763 68.3462 237.682 66.9135C237.601 65.481 238.696 64.2541 240.126 64.1734L245.232 63.8857C246.663 63.805 247.888 64.9008 247.969 66.3338Z" fill="#8C6345" stroke="#2C2C2C"/>
<path fill-rule="evenodd" clip-rule="evenodd" d="M248.285 61.6894C248.365 63.1222 247.271 64.349 245.84 64.4295L240.734 64.7175C239.304 64.7982 238.079 63.7018 237.998 62.269C237.917 60.8366 239.011 59.6097 240.442 59.5289L245.548 59.241C246.979 59.1605 248.204 60.2563 248.285 61.6894Z" fill="#8C6345" stroke="#2C2C2C"/>
<path fill-rule="evenodd" clip-rule="evenodd" d="M245.288 54.629C245.369 56.0617 244.275 57.2886 242.844 57.3693L235.936 57.7584C234.505 57.8395 233.28 56.7434 233.2 55.3103C233.119 53.8778 234.213 52.6509 235.644 52.5699L242.551 52.1808C243.982 52.1001 245.208 53.1962 245.288 54.629Z" fill="#8C6345" stroke="#2C2C2C"/>
<path fill-rule="evenodd" clip-rule="evenodd" d="M255.22 56.6714C255.301 58.1044 254.207 59.3313 252.776 59.4118L237.234 60.2882C235.803 60.3687 234.578 59.2726 234.497 57.8401C234.416 56.407 235.511 55.1802 236.941 55.0997L252.484 54.2232C253.915 54.1428 255.14 55.2386 255.22 56.6714Z" fill="#8C6345" stroke="#2C2C2C"/>
<path fill-rule="evenodd" clip-rule="evenodd" d="M228.834 54.6896L230.051 76.3085L221.321 76.801C221.194 76.9158 221.041 77.0294 220.859 77.1416C213.994 81.5215 170.913 83.3369 150.91 81.927C143.939 82.3199 137.968 76.9601 137.573 69.9554C137.178 62.9507 123.256 61.2792 149.481 56.5607C175.706 51.8422 212.675 52.5608 219.611 54.992C219.805 55.0535 219.964 55.1171 220.103 55.1818L228.834 54.6896Z" fill="#CC2935" stroke="#2C2C2C"/>
<path fill-rule="evenodd" clip-rule="evenodd" d="M221.417 76.7949L220.174 54.7436L228.809 54.2568L230.051 76.3081L221.417 76.7949Z" fill="#B52935" stroke="#2C2C2C"/>
<path fill-rule="evenodd" clip-rule="evenodd" d="M153.17 101.524L91.393 104.099L90.1056 73.216C89.8234 66.4464 95.0745 60.7298 101.834 60.448L139.132 58.8932C145.892 58.6114 151.601 63.8712 151.883 70.6408L153.17 101.524Z" fill="#D7DBE2" stroke="#2C2C2C"/>
<path fill-rule="evenodd" clip-rule="evenodd" d="M131.647 59.2053C131.846 63.981 129.794 70.1347 122.162 70.4529C113.089 70.8311 109.129 65.8183 108.893 60.1538L131.647 59.2053Z" fill="#B18058" stroke="#2C2C2C"/>
<path fill-rule="evenodd" clip-rule="evenodd" d="M136.251 120.263C143.708 120.123 150.021 119.282 156.679 116.737C157.294 116.502 157.807 116.083 157.723 115.429L156.38 105.057C149.456 105.648 142.269 107.299 134.695 108.814C134.707 112.547 134.704 115.993 134.694 118.983C134.691 119.807 135.428 120.279 136.251 120.263Z" fill="#CC2935" stroke="#2C2C2C"/>
<path fill-rule="evenodd" clip-rule="evenodd" d="M87.9738 108.241L87.543 117.715C87.4922 118.829 88.2066 119.841 89.2776 120.144C96.4566 122.179 106.649 122.952 113.327 123.142C114.384 123.172 115.281 122.383 115.396 121.329C115.724 118.343 115.912 115.034 115.989 111.52C108.861 111.539 95.8985 110.834 87.9738 108.241Z" fill="#CC2935" stroke="#2C2C2C"/>
<path fill-rule="evenodd" clip-rule="evenodd" d="M97.7858 61.1377C92.8108 62.8659 89.3352 67.6983 89.5661 73.2385L87.9737 108.242C95.8984 110.834 108.861 111.539 115.989 111.519C116.292 97.6641 116.221 69.8336 107.688 65.8549C107.688 65.8549 101.375 59.7609 97.7858 61.1377Z" fill="#FA3239" stroke="#2C2C2C"/>
<path fill-rule="evenodd" clip-rule="evenodd" d="M134.695 108.814C142.663 108.897 149.264 108.044 156.38 105.057L151.923 70.6392C151.666 64.4676 146.898 59.5535 140.936 58.9461C140.293 61.968 137.547 63.0219 133.623 65.0628C134.345 77.8629 134.655 95.903 134.695 108.814Z" fill="#FA3239" stroke="#2C2C2C"/>
<path fill-rule="evenodd" clip-rule="evenodd" d="M77.3704 167.835C74.7443 167.767 72.401 166.63 70.7369 164.799C69.9132 163.886 69.2258 162.798 68.818 161.603C68.4043 160.408 68.2127 159.1 68.2912 157.744C68.6226 151.788 69.2035 145.864 69.8604 139.951C71.1975 128.525 73.1531 117.193 75.6556 105.973C78.167 94.7551 81.2441 83.6501 84.978 72.7139C85.8644 70.1957 87.6996 68.2802 89.8949 67.2542C90.9871 66.7377 92.2099 66.4538 93.4463 66.4131C94.6845 66.3735 95.9479 66.5803 97.1734 67.0528C98.3995 67.5256 99.4722 68.218 100.366 69.0571C101.262 69.8974 101.967 70.8782 102.504 71.9562C103.563 74.1093 103.795 76.5742 102.97 78.9151C99.4881 89.1143 96.5902 99.5614 94.223 110.136C91.864 120.713 90.0153 131.419 88.7569 142.178C88.1405 147.743 87.5918 153.316 87.2835 158.891C87.2103 160.161 86.8746 161.356 86.3296 162.436C85.7792 163.517 85.0767 164.483 84.1823 165.292C82.4082 166.908 79.9966 167.902 77.3704 167.835Z" fill="#B18058" stroke="#2C2C2C"/>
<path fill-rule="evenodd" clip-rule="evenodd" d="M70.3674 173.279C68.9346 173.273 67.779 172.06 67.7873 170.57C67.7823 169.759 67.8193 168.951 67.8427 168.142L67.9196 165.717C67.981 164.101 67.9997 162.48 68.1111 160.869L68.3905 156.032L68.4607 154.823L68.5569 153.616L68.7559 151.205C68.8781 149.728 70.1342 148.637 71.561 148.769C72.9878 148.9 74.0476 150.181 73.9279 151.629L73.7322 154L73.6368 155.186L73.568 156.375L73.2938 161.128C73.1835 162.711 73.1662 164.302 73.1062 165.888L73.0301 168.27C73.0072 169.064 72.9707 169.857 72.9756 170.652C72.9682 172.109 71.8005 173.285 70.3674 173.279Z" fill="#B18058" stroke="#2C2C2C"/>
<path fill-rule="evenodd" clip-rule="evenodd" d="M74.9639 176.51L74.9639 176.51C73.531 176.522 72.3751 175.344 72.3827 173.879L72.4106 169.614L72.5461 165.355C72.5931 163.893 73.7918 162.761 75.2231 162.827C76.6546 162.893 77.7779 164.106 77.7325 165.536L77.5986 169.716L77.5715 173.897C77.5642 175.328 76.3968 176.498 74.9639 176.51Z" fill="#B18058" stroke="#2C2C2C"/>
<path fill-rule="evenodd" clip-rule="evenodd" d="M79.5735 177.052C78.1404 177.067 76.9846 175.913 76.9921 174.474L77.0133 170.283C77.0391 168.886 77.0974 167.49 77.1376 166.094C77.1836 164.656 78.3812 163.541 79.813 163.604C81.2447 163.667 82.3688 164.858 82.3242 166.264C82.2846 167.634 82.2266 169.004 82.2017 170.374L82.1811 174.481C82.1741 175.886 81.0063 177.037 79.5735 177.052Z" fill="#B18058" stroke="#2C2C2C"/>
<path fill-rule="evenodd" clip-rule="evenodd" d="M86.9073 167.251C85.4748 167.211 84.3502 166.043 84.3946 164.642C84.4208 163.963 84.427 163.283 84.4703 162.603L84.5881 160.563L84.8231 156.484C84.8537 155.784 85.5871 154.987 86.2845 154.371C86.9864 153.754 87.6734 153.317 87.6734 153.317C87.6043 154.153 88.228 154.482 88.8374 154.981C89.4477 155.481 90.031 156.149 89.9526 157.667L89.7456 161.257L89.6413 163.052C89.6123 163.651 89.6011 164.248 89.5796 164.846C89.5365 166.214 88.3396 167.291 86.9073 167.251Z" fill="#B18058" stroke="#2C2C2C"/>
<path fill-rule="evenodd" clip-rule="evenodd" d="M84.1977 174.764C82.7647 174.766 81.609 173.623 81.6161 172.208C81.5981 169.844 81.7201 167.476 81.7839 165.109C81.8309 162.742 82.0105 160.377 82.1366 158.011C82.2199 156.597 83.4383 155.535 84.8775 155.64C86.2968 155.744 87.3968 156.95 87.3157 158.334C87.1923 160.656 87.0148 162.98 86.9696 165.301C86.9071 167.622 86.7864 169.946 86.8047 172.262C86.7982 173.641 85.6307 174.762 84.1977 174.764Z" fill="#B18058" stroke="#2C2C2C"/>
<path fill-rule="evenodd" clip-rule="evenodd" d="M88.7185 151.163L67.1796 149.274L67.3675 147.01L67.6061 144.755L68.0887 140.245C67.9967 140.095 67.9103 139.919 67.8304 139.712C67.4315 138.753 67.2156 137.235 67.1066 135.262C67.0542 134.277 67.0335 133.178 67.0425 131.981C67.0462 130.783 67.1345 129.496 67.2224 128.122C67.3172 126.749 67.4406 125.292 67.5899 123.768C67.7576 122.247 67.9778 120.662 68.2087 119.023C68.6431 115.739 69.3223 112.271 70.0283 108.705C70.3909 106.924 70.8297 105.131 71.2519 103.326C71.4696 102.424 71.6879 101.52 71.9067 100.615C72.1365 99.7123 72.3905 98.8137 72.6355 97.9152C73.1342 96.1194 73.6309 94.3285 74.1569 92.5647C74.7103 90.8064 75.2696 89.0708 75.83 87.3717C76.3736 85.669 76.9886 84.0183 77.5846 82.4157C78.1872 80.8146 78.7586 79.2596 79.3684 77.7798C79.988 76.3029 80.5856 74.8724 81.1859 73.5584C83.8122 67.8086 91.7008 58.3293 99.5585 61.7728C107.416 65.2162 107.424 76.7334 106.87 78.2689C105.599 84.3837 103.93 90.9708 102.315 97.6143C102.101 98.4407 101.888 99.267 101.674 100.093C101.472 100.922 101.27 101.752 101.069 102.579C100.664 104.232 100.223 105.867 99.8102 107.493C99.0276 110.757 98.147 113.928 97.4004 116.99C97.0006 118.516 96.6098 120.006 96.2301 121.454C95.8676 122.906 95.5027 124.312 95.1375 125.665C94.9513 126.34 94.7692 127.003 94.5905 127.651C94.4188 128.301 94.2502 128.937 94.0862 129.557C93.7547 130.797 93.4255 131.974 93.1011 133.079C92.7712 134.182 92.462 135.216 92.1764 136.172C91.8884 137.126 91.6062 137.999 91.3329 138.781C90.7908 140.345 90.2631 141.544 89.8309 142.305C89.7395 142.48 89.6516 142.621 89.5658 142.742L89.116 146.951L88.8921 149.056L88.7185 151.163Z" fill="#FA3239" stroke="#2C2C2C"/>
<path fill-rule="evenodd" clip-rule="evenodd" d="M68.0787 140.344L89.9864 142.884L89.5419 147.041L89.321 149.12L89.1498 151.201L67.1803 149.273L67.3657 147.035L67.6014 144.805L68.0787 140.344Z" fill="#CC2935" stroke="#2C2C2C"/>
<path fill-rule="evenodd" clip-rule="evenodd" d="M105.238 48.6194C93.4888 50.554 92.7844 60.6287 97.7977 61.4262C101.759 62.0566 104.47 66.5693 107.989 68.1994C108.773 68.5631 109.653 67.9193 109.557 67.0585C109.53 66.8146 109.503 66.5721 109.476 66.3317C109.175 63.6653 109.432 60.2281 112.109 60.137C116.91 59.9727 124.097 59.6676 128.713 59.4345C131.216 59.3078 133.375 61.5021 133.54 64.0074C133.567 64.4186 133.594 64.8348 133.62 65.255C133.672 66.1021 134.612 66.5848 135.329 66.1327C138.368 64.2171 140.396 61.8246 140.948 59.2348C141.068 58.6735 141.123 58.1037 141.099 57.5271C140.82 50.836 117.179 46.6534 105.238 48.6194Z" fill="#CC2935" stroke="#2C2C2C"/>
<path fill-rule="evenodd" clip-rule="evenodd" d="M105.968 42.0904L135.658 40.8528L136.541 62.0272C136.707 66.0257 130.197 69.5447 121.998 69.8864C113.799 70.2282 107.018 67.2634 106.851 63.2649L105.968 42.0904Z" fill="#D7DBE2" stroke="#2C2C2C"/>
<path fill-rule="evenodd" clip-rule="evenodd" d="M110.604 42.4722L105.992 42.6644L105.478 30.3226C105.425 29.0546 106.415 27.9834 107.688 27.9304C108.962 27.8773 110.037 28.8623 110.09 30.1304L110.604 42.4722Z" fill="#D7DBE2" stroke="#2C2C2C"/>
<path fill-rule="evenodd" clip-rule="evenodd" d="M135.586 39.1307L130.974 39.3229L130.556 29.2773C130.503 28.0092 131.492 26.9381 132.766 26.885C134.039 26.8319 135.115 27.817 135.168 29.085L135.586 39.1307Z" fill="#D7DBE2" stroke="#2C2C2C"/>
<path fill-rule="evenodd" clip-rule="evenodd" d="M126.962 66.1434L124.847 66.2316C114.994 66.6423 106.684 59.2465 106.286 49.7125L105.949 41.6148C105.644 34.3162 111.512 28.1444 119.056 27.8299L121.428 27.731C128.972 27.4165 135.334 33.0785 135.638 40.3772L136.303 56.3206C136.52 61.5214 132.338 65.9193 126.962 66.1434Z" fill="#D7DBE2" stroke="#2C2C2C"/>
<path fill-rule="evenodd" clip-rule="evenodd" d="M125.677 56.7948L123.431 56.8884C116.991 57.1569 114.511 53.0698 114.296 47.9096L114.058 42.1997C113.843 37.0396 115.974 32.7603 122.414 32.4918C127.772 32.2684 132.262 35.5683 132.441 39.8624L132.884 50.509C133.022 53.8089 129.795 56.6231 125.677 56.7948Z" fill="#B18058" stroke="#2C2C2C"/>
<path fill-rule="evenodd" clip-rule="evenodd" d="M122.414 32.4918C125.922 32.3456 129.057 33.7093 130.855 35.8734C127.316 36.2358 122.592 34.503 120.948 33.9905C121.141 38.6104 117.412 40.0429 114.092 40.304C114.446 36.0282 116.782 32.7266 122.414 32.4918Z" fill="#2C2C2C" stroke="#2C2C2C"/>
<path fill-rule="evenodd" clip-rule="evenodd" d="M122.396 42.0102C122.376 41.5436 121.982 41.1813 121.516 41.2007C121.049 41.2202 120.687 41.6141 120.707 42.0806C120.726 42.5471 121.12 42.9094 121.586 42.89C122.053 42.8705 122.415 42.4767 122.396 42.0102Z" fill="#2C2C2C" stroke="#2C2C2C"/>
<path fill-rule="evenodd" clip-rule="evenodd" d="M129.716 41.705C129.696 41.2385 129.303 40.8762 128.836 40.8956C128.369 40.9151 128.007 41.3089 128.027 41.7754C128.046 42.2419 128.44 42.6043 128.906 42.5849C129.373 42.5654 129.735 42.1715 129.716 41.705Z" fill="#2C2C2C" stroke="#2C2C2C"/>
<path fill-rule="evenodd" clip-rule="evenodd" d="M125.923 41.1289L126.747 40.9405L128.226 47.4076L125.446 47.5235L125.411 46.6789L127.175 46.6052L125.923 41.1289Z" fill="#2C2C2C" stroke="#2C2C2C"/>
<path fill-rule="evenodd" clip-rule="evenodd" d="M123.009 47.5084C123.052 48.5429 124.145 49.4556 125.278 49.4456L125.346 49.4439L125.381 50.2885C123.805 50.3542 122.279 49.1301 122.169 47.6194L122.164 47.5437L123.009 47.5084Z" fill="#2C2C2C" stroke="#2C2C2C"/>
<path fill-rule="evenodd" clip-rule="evenodd" d="M122.947 38.3208L122.982 39.1654C122.074 39.2033 121.256 39.4815 120.54 39.9191C120.325 40.0503 120.134 40.1879 119.966 40.3249L119.885 40.3933C119.79 40.4747 119.724 40.5378 119.688 40.5751L119.674 40.5895L119.052 40.0172C119.246 39.8069 119.598 39.5039 120.099 39.1978C120.894 38.7117 121.802 38.3936 122.809 38.3281L122.947 38.3208Z" fill="#2C2C2C" stroke="#2C2C2C"/>
<path fill-rule="evenodd" clip-rule="evenodd" d="M126.889 38.1565C127.951 38.1122 128.929 38.3561 129.8 38.7934C130.292 39.0403 130.653 39.2953 130.87 39.4857L130.911 39.5229L130.339 40.145L130.283 40.0969C130.25 40.0702 130.207 40.0365 130.154 39.9974L130.113 39.967C129.915 39.8236 129.683 39.6806 129.42 39.5489C128.708 39.1912 127.916 38.9846 127.06 38.9973L126.924 39.0011L126.889 38.1565Z" fill="#2C2C2C" stroke="#2C2C2C"/>
<path d="M110.225 111.313L253.112 127.878C261.523 128.853 267.552 136.463 266.576 144.874L234.383 422.56C233.408 430.971 225.799 436.999 217.388 436.024L74.5007 419.459C66.0894 418.484 60.0613 410.874 61.0364 402.463L93.2296 124.777C94.2047 116.366 101.814 110.338 110.225 111.313Z" fill="#902EE9" stroke="#2C2C2C"/>
<path d="M111.319 101.877L254.206 118.442C262.617 119.417 268.646 127.027 267.67 135.438L235.477 413.124C234.502 421.535 226.893 427.563 218.482 426.588L75.5946 410.023C67.1834 409.048 61.1552 401.438 62.1304 393.027L94.3235 115.341C95.2987 106.93 102.908 100.902 111.319 101.877Z" fill="#BE6FFB" stroke="#2C2C2C"/>
<path d="M109.639 108.513L253.425 125.182C257.617 125.668 260.622 129.461 260.136 133.654L231.85 377.64C231.364 381.833 227.571 384.837 223.378 384.351L79.5926 367.682C75.4001 367.196 72.3954 363.403 72.8815 359.21L101.168 115.224C101.654 111.031 105.446 108.027 109.639 108.513Z" fill="white" stroke="#2C2C2C"/>
<path d="M160.192 398.704C159.518 404.509 154.266 408.67 148.461 407.997C142.655 407.324 138.495 402.072 139.168 396.266C139.841 390.461 145.093 386.3 150.898 386.973C156.704 387.646 160.865 392.898 160.192 398.704Z" fill="#902EE9" stroke="#2C2C2C"/>
<path d="M115.63 119.681L205.258 130.072C207.714 130.356 209.473 132.578 209.189 135.033L203.466 184.393C203.181 186.848 200.96 188.608 198.505 188.323L108.877 177.932C106.421 177.648 104.662 175.427 104.946 172.971L110.669 123.611C110.953 121.156 113.175 119.396 115.63 119.681Z" fill="#E6D3FF" stroke="#2C2C2C"/>
<path d="M121.274 132.343L196.443 141.058C197.161 141.141 197.676 141.791 197.593 142.509L197.47 143.57C197.387 144.288 196.737 144.803 196.019 144.719L120.85 136.005C120.131 135.922 119.616 135.272 119.7 134.553L119.823 133.493C119.906 132.775 120.556 132.26 121.274 132.343Z" fill="#BE6FFB" stroke="#2C2C2C"/>
<path d="M120.146 142.077L195.315 150.791C196.033 150.874 196.548 151.524 196.465 152.243L196.342 153.303C196.258 154.021 195.608 154.536 194.89 154.453L119.721 145.738C119.003 145.655 118.488 145.005 118.571 144.287L118.694 143.226C118.778 142.508 119.427 141.993 120.146 142.077Z" fill="#BE6FFB" stroke="#2C2C2C"/>
<path d="M119.017 151.809L194.186 160.524C194.905 160.607 195.419 161.257 195.336 161.976L195.213 163.036C195.13 163.754 194.48 164.269 193.762 164.186L118.593 155.471C117.874 155.388 117.36 154.738 117.443 154.02L117.566 152.959C117.649 152.241 118.299 151.726 119.017 151.809Z" fill="#BE6FFB" stroke="#2C2C2C"/>
<path d="M117.889 161.542L159.604 166.379C160.323 166.462 160.837 167.112 160.754 167.83L160.631 168.89C160.548 169.609 159.898 170.124 159.18 170.04L117.464 165.204C116.746 165.121 116.231 164.471 116.315 163.753L116.438 162.692C116.521 161.974 117.171 161.459 117.889 161.542Z" fill="#BE6FFB" stroke="#2C2C2C"/>
<path d="M98.5571 266.947L188.185 277.338C190.64 277.622 192.4 279.844 192.116 282.299L186.393 331.659C186.108 334.114 183.887 335.874 181.432 335.59L91.8037 325.199C89.3483 324.914 87.5886 322.693 87.8732 320.237L93.5957 270.877C93.8804 268.422 96.1016 266.662 98.5571 266.947Z" fill="#E6D3FF" stroke="#2C2C2C"/>
<path d="M104.201 279.609L179.37 288.324C180.088 288.407 180.603 289.057 180.52 289.775L180.397 290.836C180.314 291.554 179.664 292.069 178.945 291.986L103.777 283.271C103.058 283.188 102.543 282.538 102.627 281.82L102.75 280.759C102.833 280.041 103.483 279.526 104.201 279.609Z" fill="#BE6FFB" stroke="#2C2C2C"/>
<path d="M103.073 289.343L178.242 298.057C178.96 298.141 179.475 298.79 179.391 299.509L179.268 300.569C179.185 301.288 178.535 301.802 177.817 301.719L102.648 293.004C101.93 292.921 101.415 292.271 101.498 291.553L101.621 290.493C101.704 289.774 102.354 289.259 103.073 289.343Z" fill="#BE6FFB" stroke="#2C2C2C"/>
<path d="M101.944 299.076L177.113 307.79C177.831 307.874 178.346 308.523 178.263 309.242L178.14 310.302C178.057 311.02 177.407 311.535 176.689 311.452L101.52 302.737C100.801 302.654 100.287 302.004 100.37 301.286L100.493 300.226C100.576 299.507 101.226 298.992 101.944 299.076Z" fill="#BE6FFB" stroke="#2C2C2C"/>
<path d="M100.816 308.809L142.531 313.645C143.25 313.729 143.764 314.378 143.681 315.097L143.558 316.157C143.475 316.876 142.825 317.39 142.107 317.307L100.391 312.471C99.673 312.388 99.1582 311.738 99.2414 311.019L99.3644 309.959C99.4477 309.241 100.097 308.726 100.816 308.809Z" fill="#BE6FFB" stroke="#2C2C2C"/>
<path d="M147.322 197.978L236.95 208.369C239.406 208.653 241.165 210.875 240.881 213.33L235.158 262.69C234.874 265.145 232.652 266.905 230.197 266.62L140.569 256.229C138.114 255.945 136.354 253.723 136.638 251.268L142.361 201.908C142.646 199.453 144.867 197.693 147.322 197.978Z" fill="#F4ECFF" stroke="#2C2C2C"/>
<path d="M152.966 210.64L228.135 219.355C228.854 219.438 229.368 220.088 229.285 220.806L229.162 221.867C229.079 222.585 228.429 223.1 227.711 223.016L152.542 214.302C151.823 214.219 151.309 213.569 151.392 212.85L151.515 211.79C151.598 211.072 152.248 210.557 152.966 210.64Z" fill="#CCA4FF" stroke="#2C2C2C"/>
<path d="M151.838 220.374L227.007 229.088C227.725 229.171 228.24 229.821 228.157 230.54L228.034 231.6C227.95 232.318 227.301 232.833 226.582 232.75L151.413 224.035C150.695 223.952 150.18 223.302 150.263 222.584L150.386 221.523C150.47 220.805 151.119 220.29 151.838 220.374Z" fill="#CCA4FF" stroke="#2C2C2C"/>
<path d="M150.709 230.106L225.878 238.821C226.597 238.904 227.112 239.554 227.028 240.272L226.905 241.333C226.822 242.051 226.172 242.566 225.454 242.483L150.285 233.768C149.567 233.685 149.052 233.035 149.135 232.317L149.258 231.256C149.341 230.538 149.991 230.023 150.709 230.106Z" fill="#CCA4FF" stroke="#2C2C2C"/>
<path d="M149.581 239.839L191.296 244.676C192.015 244.759 192.53 245.409 192.446 246.127L192.323 247.187C192.24 247.906 191.59 248.421 190.872 248.337L149.157 243.501C148.438 243.418 147.923 242.768 148.007 242.05L148.13 240.989C148.213 240.271 148.863 239.756 149.581 239.839Z" fill="#CCA4FF" stroke="#2C2C2C"/>
<path d="M88.3291 343.386L190.392 355.219C192.103 355.417 193.329 356.965 193.131 358.676L192.1 367.567C191.902 369.278 190.354 370.504 188.643 370.306L86.58 358.473C84.869 358.275 83.6428 356.727 83.8412 355.016L84.872 346.125C85.0703 344.414 86.6182 343.188 88.3291 343.386Z" fill="#F4ECFF" stroke="#2C2C2C"/>
<path d="M200.97 356.445L220.882 358.753C222.593 358.952 223.819 360.499 223.62 362.21L222.59 371.102C222.391 372.813 220.843 374.039 219.132 373.841L199.22 371.532C197.509 371.334 196.283 369.786 196.482 368.075L197.512 359.184C197.711 357.473 199.259 356.246 200.97 356.445Z" fill="#BE6FFB" stroke="#2C2C2C"/>
<path d="M136.641 557.148L136.223 556.875L136.641 557.148C135.892 558.297 136.193 559.834 137.294 560.592C145.41 565.031 151.337 568.51 155.065 571.025C156.919 572.276 159.312 574.416 162.235 577.42C163.342 578.135 164.824 577.819 165.565 576.683C184.502 547.647 209.118 509.901 233.796 472.062C258.846 433.653 283.959 395.147 303.257 365.556L274.375 345.956C236.05 404.722 174.809 498.623 136.641 557.148Z" fill="#DCB284" stroke="#2C2C2C"/>
<path d="M325.221 346.769L325.521 346.307C325.461 346.215 325.356 346.085 325.194 345.915C324.836 345.54 324.269 345.044 323.517 344.442C322.016 343.243 319.834 341.671 317.25 339.888C312.115 336.344 305.43 331.991 299.456 328.126L274.274 325.032C267.12 335.553 257.435 351.341 245.218 372.405L263.298 384.423L270.909 381.044L271.602 380.737L271.612 381.495L271.725 390.024L289.49 401.833L289.624 401.627L290.78 399.846L294.905 393.489L307.422 374.198L319.94 354.908L324.065 348.55L325.221 346.769Z" fill="#CC2935" stroke="#2C2C2C"/>
<path d="M138.985 547.768L138.867 547.949L138.655 547.987C137.081 548.269 135.237 548.11 133.364 547.786C131.834 547.52 130.247 547.138 128.734 546.773C128.392 546.69 128.053 546.609 127.72 546.53C125.897 546.097 124.245 545.741 122.93 545.68C121.579 545.618 120.799 545.876 120.447 546.414C120.447 546.414 120.447 546.414 120.447 546.414L117.796 550.472C121.617 553.045 127.331 556.892 132.953 560.677C138.18 564.196 143.328 567.662 146.802 570.002L154.934 571.645L155.527 571.765L155.298 572.324L154.209 574.989C155.954 576.165 163.33 581.131 165.196 582.387L202.108 525.902L168.212 503.044L138.985 547.768Z" fill="#0A1B45" stroke="#2C2C2C"/>
<path d="M360.345 533.058L360.346 533.06C376.681 557.322 399.011 577.481 424.395 591.375L424.396 591.375C425.692 592.089 427.21 591.638 427.821 590.444C429.866 586.391 431.24 582.575 432.391 579.221C432.532 578.81 432.67 578.405 432.806 578.006C433.77 575.174 434.618 572.686 435.64 570.76L435.809 570.442C437.077 568.053 438.068 566.185 438.783 564.682C439.533 563.106 439.955 561.98 440.083 561.112C440.207 560.277 440.057 559.706 439.662 559.191C439.24 558.638 438.51 558.116 437.377 557.464C436.754 557.106 436.03 556.721 435.204 556.282C430.025 553.524 420.837 548.633 407.329 534.973C364.195 492.161 352.285 426.834 355.944 367.469L321.278 365.396C317.76 423.495 327.461 484.655 360.345 533.058Z" fill="#FFDBB4" stroke="#2C2C2C"/>
<path d="M364.934 403.421C363.61 383.195 364.389 356.371 366.928 335.825C351.392 335.597 339.567 335.364 331.455 335.127C327.35 335.007 324.193 334.886 321.985 334.764C320.881 334.703 320.01 334.641 319.374 334.578C319.056 334.547 318.792 334.515 318.584 334.482C318.41 334.454 318.24 334.42 318.11 334.373C317.831 334.308 317.553 334.378 317.235 334.666C316.889 334.979 316.532 335.524 316.18 336.326C315.48 337.923 314.875 340.358 314.36 343.414C313.334 349.512 312.691 357.936 312.301 366.708C311.549 383.616 311.741 401.736 311.918 406.784L333.543 405.412C334.926 402.92 336.311 400.462 337.696 398.039L338.076 397.375L338.532 397.989C340.238 400.287 341.942 402.548 343.643 404.772L364.934 403.421Z" fill="#FA3239" stroke="#2C2C2C"/>
<path d="M414.425 589.543L414.569 589.632L414.629 589.791C415.12 591.086 415.128 592.79 414.969 594.592C414.855 595.872 414.651 597.255 414.447 598.634C414.362 599.207 414.278 599.778 414.2 600.342C413.931 602.285 413.739 604.143 413.854 605.715C413.967 607.272 414.374 608.451 415.2 609.175L420.102 611.871C421.793 608.472 424.161 603.716 426.63 598.755C430.051 591.881 433.668 584.614 435.956 580.017C436.224 577.172 436.53 574.347 436.873 571.541L436.945 570.951L437.515 571.124L440.006 571.88L446.021 559.795C429.164 550.91 414.05 539.166 401.608 524.591L370.842 552.1C383.264 566.735 398.217 579.531 414.425 589.543Z" fill="#0A1B45" stroke="#2C2C2C"/>
<mask id="path-68-inside-1_51_4" fill="white">
<path fill-rule="evenodd" clip-rule="evenodd" d="M367.523 335.082C364.646 359.898 341.392 377.589 315.583 374.597C289.775 371.605 271.185 349.062 274.062 324.246"/>
</mask>
<path fill-rule="evenodd" clip-rule="evenodd" d="M367.523 335.082C364.646 359.898 341.392 377.589 315.583 374.597C289.775 371.605 271.185 349.062 274.062 324.246" fill="#FA3239"/>
<path d="M368.516 335.197C365.571 360.598 341.788 378.642 315.468 375.59L315.698 373.604C340.995 376.537 363.72 359.197 366.529 334.967L368.516 335.197ZM315.468 375.59C289.148 372.539 270.124 349.532 273.069 324.131L275.055 324.362C272.246 348.593 290.401 370.671 315.698 373.604L315.468 375.59Z" fill="#2C2C2C" mask="url(#path-68-inside-1_51_4)"/>
<path d="M137.028 274.82C136.846 275.341 136.84 275.986 137.151 276.803C137.644 278.046 138.832 279.056 140.38 279.017C141.121 278.995 141.903 278.858 142.78 278.691C142.875 278.673 142.972 278.654 143.069 278.636C143.858 278.485 144.715 278.32 145.638 278.218C147.73 277.985 150.167 278.069 153.133 279.278L153.226 279.316L153.297 279.387C155.114 281.203 155.618 284.035 155.097 286.427C154.577 288.81 152.983 290.952 150.412 291.15C148.408 291.409 146.198 290.702 144.408 290.065L144.4 290.063L144.392 290.059C142.662 289.375 140.981 290.22 140.107 291.586C139.674 292.265 139.464 293.04 139.544 293.767C139.623 294.48 139.984 295.181 140.757 295.74C143.554 297.647 147.268 299.245 151.026 300.863C151.257 300.962 151.488 301.062 151.72 301.161C155.68 302.869 159.637 304.623 162.386 306.791L162.392 306.796C181.284 322.158 204 335.927 229.271 334.814C244.836 334.041 259.58 327.134 271.749 318.053L271.75 318.053C280.861 311.275 288.795 303.387 296.027 294.82L296.029 294.817C301.947 287.912 302.031 278.121 294.567 273.036L294.565 273.035C287.765 268.369 279.144 270.033 273.958 276.231L273.957 276.233C268.025 283.275 261.511 289.714 254.572 294.868C241.542 305.442 228.629 307.492 216.139 304.518C203.682 301.552 191.682 293.598 180.413 284.251L180.412 284.251L180.405 284.244C171.6 276.657 160.886 268.208 150.804 264.665C146.89 263.472 143.454 262.555 140.779 262.314C138.081 262.07 136.396 262.535 135.636 263.792C135.227 264.786 135.218 265.45 135.402 265.947C135.593 266.461 136.028 266.903 136.738 267.369C137.285 267.729 137.942 268.07 138.695 268.461C138.923 268.58 139.16 268.703 139.405 268.832C140.445 269.381 141.599 270.029 142.753 270.893L143.643 271.56L142.553 271.783C140.979 272.105 139.282 272.604 138.156 273.425C137.601 273.829 137.213 274.29 137.028 274.82Z" fill="#DCB284" stroke="#2C2C2C"/>
<path d="M137.028 274.82C136.846 275.341 136.84 275.986 137.151 276.803C137.644 278.046 138.832 279.056 140.38 279.017C141.121 278.995 141.903 278.858 142.78 278.691C142.875 278.673 142.972 278.654 143.069 278.636C143.858 278.485 144.715 278.32 145.638 278.218C147.73 277.985 150.167 278.069 153.133 279.278L153.226 279.316L153.297 279.387C155.114 281.203 155.618 284.035 155.097 286.427C154.577 288.81 152.983 290.952 150.412 291.15C148.408 291.409 146.198 290.702 144.408 290.065L144.4 290.063L144.392 290.059C142.662 289.375 140.981 290.22 140.107 291.586C139.674 292.265 139.464 293.04 139.544 293.767C139.623 294.48 139.984 295.181 140.757 295.74C143.554 297.647 147.268 299.245 151.026 300.863C151.257 300.962 151.488 301.062 151.72 301.161C155.68 302.869 159.637 304.623 162.386 306.791L162.392 306.796C181.284 322.158 204 335.927 229.271 334.814C244.836 334.041 259.58 327.134 271.749 318.053L271.75 318.053C280.861 311.275 288.795 303.387 296.027 294.82L296.029 294.817C301.947 287.912 302.031 278.121 294.567 273.036L294.565 273.035C287.765 268.369 279.144 270.033 273.958 276.231L273.957 276.233C268.025 283.275 261.511 289.714 254.572 294.868C241.542 305.442 228.629 307.492 216.139 304.518C203.682 301.552 191.682 293.598 180.413 284.251L180.412 284.251L180.405 284.244C171.6 276.657 160.886 268.208 150.804 264.665C146.89 263.472 143.454 262.555 140.779 262.314C138.081 262.07 136.396 262.535 135.636 263.792C135.227 264.786 135.218 265.45 135.402 265.947C135.593 266.461 136.028 266.903 136.738 267.369C137.285 267.729 137.942 268.07 138.695 268.461C138.923 268.58 139.16 268.703 139.405 268.832C140.445 269.381 141.599 270.029 142.753 270.893L143.643 271.56L142.553 271.783C140.979 272.105 139.282 272.604 138.156 273.425C137.601 273.829 137.213 274.29 137.028 274.82Z" fill="#DCB284" stroke="#2C2C2C"/>
<path d="M189.836 288.081L189.732 288.058L189.646 287.995C186.491 285.681 183.368 283.231 180.313 280.626L158.918 305.653C162.545 308.747 166.327 311.727 170.248 314.6L170.32 314.653L170.369 314.726C173.144 318.886 177.374 322.254 181.635 325.545C196.852 336.976 216.246 343.943 235.374 341.654L235.378 341.653C252.602 339.721 268.529 331.122 281.151 320.053L281.153 320.052C289.407 312.896 297.006 303.942 302.686 295.277L302.706 295.247L302.73 295.22C306.533 290.929 308.851 283.993 308.778 277.615C308.705 271.23 306.251 265.6 300.739 263.636C295.052 261.61 290.42 261.619 284.776 264.144C279.079 266.694 272.356 271.804 262.531 280.046C255.367 286.198 247.068 292.349 238.148 295.82C229.256 299.732 221.148 298.628 213.289 296.141C210.232 295.174 207.198 293.993 204.173 292.815C203.317 292.482 202.462 292.149 201.607 291.821C197.72 290.33 193.826 288.941 189.836 288.081Z" fill="#2DB386" stroke="#2C2C2C"/>
<path d="M188.735 288.169C185.739 285.953 182.775 283.617 179.871 281.143L158.477 306.169C161.95 309.131 165.567 311.991 169.31 314.754L188.735 288.169Z" fill="#25996F" stroke="#2C2C2C"/>
<path d="M377.142 288.917L377.138 288.866L377.144 288.815C378.285 278.971 370.429 269.893 359.486 268.624L296.882 261.366C285.938 260.098 276.215 267.138 275.074 276.982L275.068 277.028L275.054 277.073C267.858 300.049 262.589 317.091 259.248 328.203C258.1 332.019 257.566 337.082 257.664 343.409C273.9 346.383 304.885 347.922 331.886 347.985C345.493 348.017 358.069 347.674 367.215 346.954C371.792 346.594 375.491 346.14 378.027 345.596C379.3 345.324 380.249 345.034 380.863 344.738C381.171 344.589 381.364 344.452 381.472 344.34C381.573 344.235 381.569 344.185 381.569 344.178L381.569 344.178C380.847 332.42 379.372 314.001 377.142 288.917Z" fill="#34D1A1" stroke="#2C2C2C"/>
<path d="M381.803 342.937C358.984 347.806 336.316 345.357 315.309 341.071C305.969 339.166 296.947 336.894 288.387 334.739C287.234 334.449 286.09 334.161 284.954 333.876C275.555 331.519 266.756 329.387 258.721 328.134L254.78 344.378C263.028 345.588 272.093 347.746 281.751 350.147C283.163 350.498 284.588 350.854 286.025 351.213C294.642 353.368 303.697 355.631 313.064 357.539C334.805 361.967 358.177 364.464 381.49 359.212L381.803 342.937Z" fill="#2DB386" stroke="#2C2C2C"/>
<path d="M458.679 229.148L458.679 229.148L458.675 229.16C452.54 246.977 444.664 266.978 428.155 277.527L428.141 277.535L428.127 277.543C419.659 282.209 410.017 283.22 400.289 282.276C390.563 281.333 380.717 278.434 371.813 275.245L371.813 275.245L371.805 275.242C364.217 272.379 355.859 275.121 352.225 282.555C350.439 286.672 350.381 290.036 351.427 292.821C352.479 295.622 354.674 297.911 357.529 299.813C363.256 303.628 371.456 305.77 377.728 307.356L377.731 307.357C395.151 311.848 413.798 313.493 431.32 307.613L431.32 307.613C437.538 305.533 443.595 302.329 448.839 298.336L448.84 298.336C463.358 287.295 472.564 271.65 479.663 255.378C484.745 243.508 488.5 231.34 491.48 218.836L491.48 218.836C492.277 215.502 492.996 212.154 493.659 208.779L493.66 208.772L493.662 208.765C494.044 207.081 493.222 205.623 491.971 204.869C490.72 204.116 489.103 204.1 487.885 205.253L486.78 206.3L487.049 204.802L487.492 202.335L487.492 202.335L487.494 202.323C487.855 200.569 486.906 199.15 485.544 198.487C484.178 197.821 482.483 197.959 481.375 199.261L480.702 200.053L480.503 199.033C480.29 197.936 479.731 197.199 479.033 196.756C478.325 196.308 477.444 196.144 476.575 196.258C474.834 196.486 473.267 197.795 473.302 199.947L472.359 200.188C471.671 198.877 470.152 198.326 468.677 198.532C467.204 198.738 465.958 199.67 465.743 201.132L465.742 201.141L465.74 201.151C465.278 203.649 464.767 206.156 464.211 208.653L464.108 209.114L463.643 209.038C462.145 208.794 461.147 209.192 460.413 209.94C459.647 210.721 459.127 211.927 458.726 213.375C458.414 214.502 458.188 215.721 457.962 216.934C457.899 217.277 457.835 217.619 457.77 217.958C457.482 219.452 457.157 220.909 456.618 222C456.329 222.993 456.353 223.727 456.513 224.305C456.678 224.896 456.996 225.368 457.365 225.822C457.456 225.934 457.556 226.051 457.658 226.171C457.941 226.503 458.246 226.86 458.455 227.221C458.769 227.764 458.921 228.387 458.679 229.148Z" fill="#FFDBB4" stroke="#2C2C2C"/>
<path d="M482.046 256.782L482.052 256.698L482.086 256.621C484.035 252.126 485.736 247.595 487.313 243.052L456.167 232.377C454.837 236.2 453.422 239.97 451.84 243.609L451.804 243.692L451.741 243.757C449.996 245.565 448.008 248.037 445.802 250.806C445.66 250.984 445.517 251.163 445.373 251.344C443.289 253.959 441.025 256.802 438.62 259.541C433.496 265.375 427.651 270.836 421.408 272.637C413.21 275.228 405.431 275.108 396.361 273.962C392.55 273.481 388.501 272.817 384.096 272.095C383.262 271.958 382.414 271.819 381.554 271.679C376.144 270.798 370.187 269.865 363.459 269.085C356.735 268.306 352.47 268.453 349.759 269.212C348.412 269.589 347.468 270.112 346.796 270.732C346.127 271.349 345.702 272.084 345.427 272.927C345.15 273.777 345.027 274.733 344.963 275.785C344.926 276.413 344.91 277.047 344.894 277.706C344.883 278.167 344.871 278.64 344.851 279.13C344.757 281.466 344.482 284 343.111 286.389L343.106 286.397C341.575 288.952 340.99 291.133 341.093 293.016C341.197 294.892 341.987 296.529 343.319 297.997C346.01 300.963 350.851 303.171 356.402 305.077L356.436 305.089L356.469 305.106C367.303 310.682 379.871 315.231 393.19 317.413L393.197 317.414C411.917 320.756 434.625 318.079 450.674 306.424L450.676 306.422C466.36 295.166 480.622 275.495 482.046 256.782Z" fill="#34D1A1" stroke="#2C2C2C"/>
<path d="M481.732 255.723C483.566 251.45 485.171 247.15 486.671 242.832L455.523 232.157C454.272 235.752 452.947 239.309 451.474 242.739L481.732 255.723Z" fill="#2DB386" stroke="#2C2C2C"/>
<path d="M341.283 220.105C340.557 226.365 344.909 232.043 351.074 233.021L355.313 196.459C355.683 193.263 355.311 190.642 354.473 188.794C353.636 186.949 352.361 185.919 350.91 185.75C349.438 185.58 347.977 186.202 346.761 187.735C345.535 189.28 344.572 191.741 344.174 195.167L341.283 220.105Z" fill="#34D1A1" stroke="#2C2C2C"/>
<path d="M348.989 219.584L351.588 197.165C351.689 196.291 351.903 194.436 351.713 192.763C351.618 191.924 351.426 191.179 351.103 190.635C350.792 190.11 350.37 189.786 349.767 189.716C349.165 189.646 348.68 189.865 348.257 190.305C347.818 190.761 347.461 191.442 347.176 192.237C346.609 193.822 346.392 195.677 346.291 196.551L343.692 218.97L348.989 219.584Z" fill="#2DB386" stroke="#2C2C2C"/>
<path d="M317.918 217.396C317.192 223.656 321.543 229.334 327.709 230.313L331.948 193.75C332.318 190.555 331.946 187.933 331.108 186.085C330.27 184.24 328.996 183.21 327.545 183.042C326.073 182.871 324.612 183.493 323.396 185.026C322.17 186.571 321.206 189.032 320.809 192.459L317.918 217.396Z" fill="#34D1A1" stroke="#2C2C2C"/>
<path d="M325.624 216.876L328.223 194.456C328.324 193.583 328.537 191.727 328.348 190.054C328.253 189.216 328.061 188.47 327.738 187.926C327.427 187.401 327.005 187.077 326.402 187.007C325.8 186.938 325.315 187.156 324.891 187.596C324.453 188.052 324.095 188.734 323.811 189.528C323.244 191.114 323.027 192.969 322.926 193.842L320.326 216.262L325.624 216.876Z" fill="#2DB386" stroke="#2C2C2C"/>
<path d="M311.204 265.295L312.503 265.445C315.592 265.803 318.386 263.589 318.745 260.5L322.973 224.028L310.486 222.58L306.258 259.052C305.9 262.142 308.114 264.936 311.204 265.295Z" fill="#2DB386" stroke="#2C2C2C"/>
<path d="M340.91 246.066L321.683 243.837L319.051 266.541C318.352 272.568 322.152 277.862 327.41 278.472C332.669 279.081 337.579 274.797 338.278 268.77L340.91 246.066Z" fill="#FFDBB4" stroke="#2C2C2C"/>
<path d="M318.712 257.058L320.953 257.317C331.118 258.496 340.313 251.211 341.491 241.047L342.519 232.181C343.414 224.464 337.884 217.482 330.166 216.587L327.653 216.296C319.936 215.401 312.954 220.932 312.06 228.649L310.036 246.106C309.407 251.526 313.292 256.429 318.712 257.058Z" fill="#FFDBB4" stroke="#2C2C2C"/>
<path d="M336.751 243.487C336.423 246.314 338.45 248.872 341.277 249.2C344.105 249.528 346.663 247.501 346.991 244.674C347.319 241.846 345.292 239.288 342.465 238.96C339.637 238.632 337.079 240.659 336.751 243.487Z" fill="#FFDBB4" stroke="#2C2C2C"/>
<path d="M342.639 242.668L342.682 242.3C342.423 242.319 342.129 242.373 341.822 242.485C341.078 242.755 340.53 243.297 340.299 244.174L340.657 244.215C340.733 243.947 340.846 243.708 341 243.5C341.247 243.169 341.574 242.954 341.944 242.82C342.171 242.738 342.407 242.69 342.639 242.668Z" fill="#2C2C2C" stroke="#2C2C2C"/>
<path d="M323.888 210.851L314.144 220.554L330.177 222.413L330.521 222.453L330.605 222.789C331.641 226.969 333.421 230.639 335.589 233.331C337.762 236.03 340.286 237.701 342.804 237.993L343.288 238.049C344.577 236.991 345.62 235.301 346.453 233.236C347.316 231.097 347.935 228.604 348.378 226.111C348.656 224.544 348.225 222.923 347.264 221.332C346.304 219.74 344.829 218.207 343.083 216.845C339.584 214.116 335.092 212.149 331.73 211.76L323.888 210.851Z" fill="#2C2C2C" stroke="#2C2C2C"/>
<path d="M340.883 268.735C344.152 269.114 347.109 266.772 347.488 263.504L351.679 227.356L339.842 225.984L335.651 262.131C335.272 265.4 337.615 268.356 340.883 268.735Z" fill="#34D1A1" stroke="#2C2C2C"/>
<mask id="path-90-inside-2_51_4" fill="white">
<path fill-rule="evenodd" clip-rule="evenodd" d="M309.656 225.404L309.665 225.319C309.662 225.348 309.665 225.377 309.664 225.405L309.656 225.404Z"/>
</mask>
<path fill-rule="evenodd" clip-rule="evenodd" d="M309.656 225.404L309.665 225.319C309.662 225.348 309.665 225.377 309.664 225.405L309.656 225.404Z" fill="#34D1A1"/>
<path d="M309.656 225.404L309.54 226.398L308.547 226.283L308.662 225.289L309.656 225.404ZM309.664 225.405L310.664 225.424L310.643 226.526L309.549 226.399L309.664 225.405ZM308.662 225.289L308.672 225.204L310.659 225.434L310.649 225.52L308.662 225.289ZM310.659 225.434C310.662 225.408 310.663 225.386 310.663 225.372C310.664 225.358 310.664 225.349 310.664 225.349C310.664 225.349 310.664 225.349 310.664 225.353C310.664 225.355 310.664 225.361 310.664 225.366C310.664 225.372 310.664 225.381 310.664 225.39C310.664 225.4 310.664 225.411 310.664 225.424L308.664 225.386C308.664 225.397 308.664 225.404 308.664 225.401C308.664 225.4 308.664 225.399 308.664 225.394C308.664 225.39 308.664 225.383 308.664 225.376C308.664 225.349 308.663 225.283 308.672 225.204L310.659 225.434ZM309.549 226.399L309.54 226.398L309.771 224.411L309.779 224.412L309.549 226.399Z" fill="#2C2C2C" mask="url(#path-90-inside-2_51_4)"/>
<path d="M310.489 222.557L309.889 227.739C310.003 227.624 310.125 227.508 310.252 227.392C311.159 226.568 312.419 225.699 313.928 224.934C316.944 223.404 321.009 222.261 325.311 222.759C329.615 223.258 333.156 225.286 335.588 227.453C336.804 228.536 337.753 229.664 338.386 230.669C338.703 231.171 338.946 231.651 339.102 232.086C339.191 232.333 339.257 232.579 339.288 232.814C339.324 232.819 339.362 232.824 339.401 232.829C339.742 232.873 340.23 232.934 340.817 233.006C341.99 233.152 343.554 233.343 345.119 233.533C346.684 233.723 348.25 233.912 349.423 234.054L350.842 234.225L350.881 234.23L351.681 227.332C352.225 222.64 349.897 218.008 346.225 214.382C342.554 210.759 337.612 208.217 333.086 207.683C328.559 207.168 323.166 208.511 318.764 211.199C314.359 213.887 311.033 217.865 310.489 222.557Z" fill="#34D1A1" stroke="#2C2C2C"/>
<mask id="path-93-inside-3_51_4" fill="white">
<path fill-rule="evenodd" clip-rule="evenodd" d="M333.179 207.189C333.168 207.188 333.155 207.187 333.144 207.186C333.132 207.185 333.12 207.182 333.108 207.181L333.179 207.189Z"/>
</mask>
<path fill-rule="evenodd" clip-rule="evenodd" d="M333.179 207.189C333.168 207.188 333.155 207.187 333.144 207.186C333.132 207.185 333.12 207.182 333.108 207.181L333.179 207.189Z" fill="#34D1A1"/>
<path d="M333.064 208.182C333.074 208.184 333.081 208.184 333.084 208.184C333.087 208.185 333.088 208.185 333.084 208.185C333.082 208.184 333.075 208.184 333.066 208.183C333.057 208.182 333.044 208.181 333.029 208.179L333.259 206.193C333.249 206.191 333.241 206.191 333.239 206.191C333.236 206.19 333.234 206.19 333.238 206.19C333.24 206.191 333.248 206.191 333.256 206.192C333.265 206.193 333.278 206.194 333.294 206.196L333.064 208.182ZM333.029 208.179C333.013 208.177 333 208.176 332.991 208.174C332.983 208.173 332.975 208.172 332.973 208.172C332.969 208.171 332.971 208.171 332.973 208.172C332.977 208.172 332.984 208.173 332.993 208.174L333.223 206.188C333.239 206.189 333.252 206.191 333.261 206.192C333.269 206.194 333.277 206.195 333.279 206.195C333.283 206.196 333.281 206.196 333.279 206.195C333.276 206.195 333.268 206.194 333.259 206.193L333.029 208.179ZM333.223 206.188L333.294 206.196L333.064 208.182L332.993 208.174L333.223 206.188Z" fill="#2C2C2C" mask="url(#path-93-inside-3_51_4)"/>
<path d="M317.433 234.179C316.963 234.124 316.538 234.461 316.483 234.932C316.429 235.402 316.766 235.827 317.236 235.882C317.706 235.936 318.131 235.599 318.186 235.129C318.241 234.659 317.904 234.233 317.433 234.179Z" fill="#2C2C2C" stroke="#2C2C2C"/>
<path d="M322.468 248.66C324.438 248.656 326.316 247.311 326.794 245.549L326.435 245.508C326.207 246.294 325.673 246.97 325.008 247.454C324.304 247.967 323.419 248.29 322.51 248.302L322.468 248.66Z" fill="#2C2C2C" stroke="#2C2C2C"/>
<path d="M332.461 233.318L332.666 233.022C332.502 232.933 332.304 232.836 332.074 232.734C330.634 232.098 329.007 231.788 327.265 232.009L327.33 232.361C328.996 232.154 330.559 232.454 331.93 233.06C332.122 233.146 332.3 233.232 332.461 233.318Z" fill="#2C2C2C" stroke="#2C2C2C"/>
<path d="M315.359 227.909L315.508 228.238C315.723 228.169 315.96 228.103 316.217 228.046C317.642 227.725 319.181 227.724 320.728 228.206L320.854 227.871C319.239 227.363 317.635 227.36 316.138 227.697C315.834 227.766 315.573 227.839 315.359 227.909Z" fill="#2C2C2C" stroke="#2C2C2C"/>
<path d="M330.748 237.573L331.1 237.477C330.626 236.537 329.585 235.931 328.459 235.799C327.312 235.663 326.265 236.032 325.756 236.856L326.112 236.971C326.318 236.679 326.608 236.47 326.926 236.336C327.383 236.144 327.914 236.094 328.423 236.154C329.302 236.256 330.284 236.713 330.748 237.573Z" fill="#2C2C2C" stroke="#2C2C2C"/>
<path d="M319.056 242.85L321.561 234.71L321.22 234.605L318.412 243.73L321.755 244.118L321.796 243.763L319.476 243.494L318.879 243.425L319.056 242.85Z" fill="#2C2C2C" stroke="#2C2C2C"/>
<path fill-rule="evenodd" clip-rule="evenodd" d="M273.446 144.007C269.085 136.454 272.772 126.21 281.618 121.102C290.464 115.995 301.18 117.924 305.54 125.477C308.183 130.055 307.925 135.776 305.034 140.802L305.025 140.817L305.126 140.982C306.568 143.319 307.941 144.676 308.958 144.613L309.029 144.608C309.586 144.583 309.837 145.316 309.364 145.635C307.373 146.977 305.422 147.487 303.564 147.315C302.37 147.204 301.309 146.825 300.404 146.289L300.386 146.279L300.337 146.32C299.471 147.035 298.55 147.684 297.577 148.26L297.368 148.382C288.522 153.49 277.807 151.56 273.446 144.007ZM304.568 126.039C300.54 119.063 290.522 117.259 282.18 122.075C273.838 126.891 270.391 136.469 274.419 143.446C278.446 150.422 288.465 152.226 296.807 147.409C297.934 146.758 298.991 146.005 299.971 145.159C300.162 144.994 300.441 144.977 300.651 145.118C301.49 145.681 302.507 146.088 303.668 146.196C304.903 146.311 306.196 146.072 307.542 145.403L307.576 145.386L307.505 145.346C306.336 144.691 305.159 143.241 303.946 141.201L303.888 141.105C303.784 140.928 303.785 140.707 303.891 140.531C306.75 135.766 307.049 130.338 304.568 126.039Z" fill="#2C2C2C"/>
<path fill-rule="evenodd" clip-rule="evenodd" d="M284.86 137.874C285.392 138.794 285.076 139.971 284.156 140.502C283.235 141.034 282.059 140.719 281.527 139.798C280.996 138.878 281.311 137.701 282.232 137.169C283.152 136.638 284.329 136.953 284.86 137.874Z" fill="#2C2C2C"/>
<path fill-rule="evenodd" clip-rule="evenodd" d="M291.4 134.098C291.932 135.018 291.617 136.195 290.696 136.727C289.776 137.258 288.599 136.943 288.067 136.022C287.536 135.102 287.851 133.925 288.772 133.393C289.692 132.862 290.869 133.177 291.4 134.098Z" fill="#2C2C2C"/>
<path fill-rule="evenodd" clip-rule="evenodd" d="M297.94 130.322C298.472 131.243 298.156 132.419 297.236 132.951C296.315 133.482 295.138 133.167 294.607 132.246C294.075 131.326 294.391 130.149 295.311 129.618C296.232 129.086 297.409 129.402 297.94 130.322Z" fill="#2C2C2C"/>
<path fill-rule="evenodd" clip-rule="evenodd" d="M247.3 152.45C243.105 145.185 246.672 135.274 255.266 130.312C263.86 125.35 274.227 127.217 278.421 134.481C282.616 141.746 279.049 151.657 270.455 156.619C269.272 157.302 268.056 157.85 266.828 158.278C266.932 159.833 266.628 163.41 262.112 165.616C263.048 164.305 261.973 161.67 260.684 159.39C255.092 159.484 249.957 157.052 247.3 152.45Z" fill="#FF9A83"/>
<path fill-rule="evenodd" clip-rule="evenodd" d="M258.198 146.971C258.73 147.891 258.415 149.068 257.494 149.599C256.574 150.131 255.397 149.816 254.865 148.895C254.334 147.975 254.649 146.798 255.57 146.266C256.49 145.735 257.667 146.05 258.198 146.971Z" fill="white"/>
<path fill-rule="evenodd" clip-rule="evenodd" d="M264.738 143.195C265.269 144.116 264.954 145.292 264.034 145.824C263.113 146.355 261.936 146.04 261.405 145.119C260.873 144.199 261.189 143.022 262.109 142.491C263.03 141.959 264.207 142.275 264.738 143.195Z" fill="white"/>
<path fill-rule="evenodd" clip-rule="evenodd" d="M271.278 139.419C271.81 140.34 271.494 141.516 270.574 142.048C269.653 142.579 268.477 142.264 267.945 141.343C267.414 140.423 267.729 139.246 268.649 138.715C269.57 138.183 270.747 138.499 271.278 139.419Z" fill="white"/>
<path d="M291.694 108.072C291.643 107.766 291.85 107.477 292.156 107.426C292.451 107.377 292.731 107.568 292.796 107.856L292.802 107.889L293.656 113.044C293.707 113.35 293.5 113.639 293.194 113.69C292.899 113.739 292.619 113.548 292.554 113.26L292.548 113.228L291.694 108.072Z" fill="#2C2C2C"/>
<path d="M298.968 108.889C299.078 108.599 299.402 108.452 299.692 108.562C299.971 108.667 300.117 108.971 300.031 109.252L300.019 109.285L298.222 114.057C298.113 114.347 297.789 114.494 297.499 114.384C297.219 114.279 297.073 113.976 297.159 113.694L297.171 113.661L298.968 108.889Z" fill="#2C2C2C"/>
<path d="M304.84 113.098C305.084 112.906 305.437 112.949 305.629 113.193C305.813 113.428 305.78 113.765 305.559 113.96L305.534 113.982L301.934 116.807C301.69 116.998 301.337 116.956 301.145 116.712C300.961 116.476 300.994 116.14 301.215 115.944L301.24 115.923L304.84 113.098Z" fill="#2C2C2C"/>
<g filter="url(#filter0_d_51_4)">
<path d="M20.1782 164.855C21.0616 171.194 52.8992 218.519 68.7076 241.389C64.7389 227.403 51.3439 197.701 45.1425 184.598C53.679 190.308 70.757 200.313 70.7763 194.656C70.7956 188.999 43.1615 136.579 29.342 111.075C29.342 111.075 44.0375 156.145 48.357 175.063C38.596 169.019 19.2947 158.517 20.1782 164.855Z" fill="#EBFF00"/>
<path d="M20.1782 164.855C21.0616 171.194 52.8992 218.519 68.7076 241.389C64.7389 227.403 51.3439 197.701 45.1425 184.598C53.679 190.308 70.757 200.313 70.7763 194.656C70.7956 188.999 43.1615 136.579 29.342 111.075C29.342 111.075 44.0375 156.145 48.357 175.063C38.596 169.019 19.2947 158.517 20.1782 164.855Z" stroke="#2C2C2C"/>
</g>
<defs>
<filter id="filter0_d_51_4" x="18.6493" y="110.837" width="52.627" height="134.836" filterUnits="userSpaceOnUse" color-interpolation-filters="sRGB">
<feFlood flood-opacity="0" result="BackgroundImageFix"/>
<feColorMatrix in="SourceAlpha" type="matrix" values="0 0 0 0 0 0 0 0 0 0 0 0 0 0 0 0 0 0 127 0" result="hardAlpha"/>
<feOffset dx="-1" dy="4"/>
<feComposite in2="hardAlpha" operator="out"/>
<feColorMatrix type="matrix" values="0 0 0 0 0.956863 0 0 0 0 0.94902 0 0 0 0 0.831373 0 0 0 1 0"/>
<feBlend mode="normal" in2="BackgroundImageFix" result="effect1_dropShadow_51_4"/>
<feBlend mode="normal" in="SourceGraphic" in2="effect1_dropShadow_51_4" result="shape"/>
</filter>
</defs>
</svg>
