<svg viewBox="346.7625000000003 569.102564102564 3319.0125 2721.794871794873" fill="none" xmlns="http://www.w3.org/2000/svg" xmlns:xlink="http://www.w3.org/1999/xlink" overflow="visible" width="3319.0125px" height="2721.794871794873px"><g id="Master/Spot Illustration/Mailing List"><ellipse id="Floor" opacity="0.5" cx="1982" cy="3206" rx="1602" ry="58" fill="#D5ECFF"/><g id="Opened Mail"><path id="Rectangle" fill-rule="evenodd" clip-rule="evenodd" d="M1801.39 1149.17L3015.34 1910.64L1828.09 2469.03L614.141 1883.92L1801.39 1149.17Z" fill="#DDB0C8"/><g id="Paper"><rect id="Rectangle_2" x="838" y="1594" width="1956" height="1504" fill="#E6D3FF"/><path id="Rectangle Copy 38" d="M838 1594H2794V2998C2794 3053.23 2749.23 3098 2694 3098H838V1594Z" fill="#FCEBEC"/><g id="Writing"><rect id="Rectangle Copy 11" x="1006.66" y="1767.83" width="1623.71" height="23.9784" fill="#DDB0C8"/><rect id="Rectangle Copy 42" x="1006.66" y="2299.71" width="1623.71" height="23.9784" fill="#DDB0C8"/><rect id="Rectangle Copy 39" x="1006.66" y="1900.8" width="1623.71" height="23.9784" fill="#DDB0C8"/><rect id="Rectangle Copy 43" x="1006.66" y="2432.68" width="1623.71" height="23.9784" fill="#DDB0C8"/><rect id="Rectangle Copy 40" x="1006.66" y="2033.77" width="1623.71" height="23.9784" fill="#DDB0C8"/><rect id="Rectangle Copy 44" x="1006.66" y="2565.66" width="1623.71" height="23.9784" fill="#DDB0C8"/><rect id="Rectangle Copy 41" x="1006.66" y="2166.74" width="1623.71" height="23.9784" fill="#DDB0C8"/><rect id="Rectangle Copy 45" x="1006.66" y="2698.62" width="1623.71" height="23.9784" fill="#DDB0C8"/><rect id="Rectangle Copy 46" x="1868.3" y="2892.63" width="762.07" height="23.9784" fill="#DDB0C8"/></g></g><path id="Combined Shape" fill-rule="evenodd" clip-rule="evenodd" d="M614.944 1884H614V3196H3018V1884H2971.94L3015.34 1911.21L1828.09 2469.35L614.142 1884.5L614.944 1884Z" fill="#EECCDC"/><path id="Path 5" fill-rule="evenodd" clip-rule="evenodd" d="M614 3196L1827 2469.35L614 1884V3196Z" fill="#EECCDC"/></g><g id="Master/Character/Standing [colors]" transform="translate(1671 556) scale(1 1)"><g id="Master/Character/Standing [colors]"><g id="Lower Body/Standing" transform="translate(503 1151) scale(1 1)"><g id="Lower Body/Standing/Pijamas with Socks"><g id="Group 14"><path id="Fill 1" fill-rule="evenodd" clip-rule="evenodd" d="M470.979 1432.75H587.733V1288.98H470.979V1432.75Z" fill="#ecafa3"/><path id="Fill 2" fill-rule="evenodd" clip-rule="evenodd" d="M1014.65 1403.57L892.337 1411.1L885.061 1292.83L1007.37 1285.3L1014.65 1403.57Z" fill="#ecafa3"/><g id="Group 13"><g id="Group 5"><path id="Fill 3" fill-rule="evenodd" clip-rule="evenodd" d="M838.365 1544.08C822.485 1525.08 885.995 1502 893.295 1452.24C893.415 1451.4 893.575 1450.57 893.765 1449.78L891.545 1413.13L889.575 1413.22C887.755 1413.29 886.075 1412.74 884.825 1411.79C883.575 1410.84 882.755 1409.48 882.655 1407.95C882.475 1404.9 885.265 1402.29 888.905 1402.13L1013.26 1396.8C1015.08 1396.73 1016.76 1397.28 1018.01 1398.23C1019.26 1399.18 1020.08 1400.53 1020.17 1402.06C1020.36 1405.12 1017.56 1407.73 1013.93 1407.88L1012.02 1407.97L1013.91 1439.1L1014.04 1441.25C1013.91 1444.87 1013.87 1452.92 1015.29 1463.19C1017.82 1481.33 1024.95 1506.39 1044.35 1526.06C1078.82 1561 854.245 1563.08 838.365 1544.08" fill="#FEE1E6"/></g><path id="Fill 6" fill-rule="evenodd" clip-rule="evenodd" d="M1015.36 1463.19H1015.28C1013.86 1452.92 1013.9 1444.87 1014.03 1441.25L1015.36 1463.19Z" fill="white"/><path id="Fill 8" fill-rule="evenodd" clip-rule="evenodd" d="M645.355 1535.8C629.485 1555.91 404.905 1553.72 439.375 1516.73C459.285 1495.37 466.275 1468.01 468.625 1448.7L467.835 1403.63L465.865 1403.66C464.045 1403.68 462.385 1403.04 461.175 1401.99C459.965 1400.95 459.195 1399.49 459.175 1397.87C459.115 1394.63 462.015 1391.96 465.655 1391.91L590.155 1390.17C591.975 1390.14 593.635 1390.77 594.845 1391.82C596.045 1392.87 596.815 1394.32 596.845 1395.94C596.905 1399.18 593.995 1401.86 590.355 1401.91L588.445 1401.94L588.985 1432.51C589.635 1434.38 590.125 1436.4 590.425 1438.58C597.725 1491.26 661.235 1515.69 645.355 1535.8" fill="#FEE1E6"/><g id="Group 12"><path id="Fill 10" fill-rule="evenodd" clip-rule="evenodd" d="M431.18 0C431.18 0 388.899 317.533 398.001 560.262C407.104 802.989 428.12 1255.81 428.12 1255.81C428.12 1255.81 400.358 1282.71 421.18 1306.13C432.396 1318.75 611.475 1307.46 611.475 1307.46C611.475 1307.46 623.438 1277.01 606.037 1250.9C606.037 1250.9 657.176 366.622 657.857 380.516C661.833 461.641 752.595 925.895 840.169 1252.61C840.169 1252.61 830.064 1294.72 841.853 1304.82C853.642 1314.92 1032.88 1313.37 1036.25 1299.9C1039.62 1286.43 1019.41 1239.27 1019.41 1239.27C1019.41 1239.27 952.987 335.296 868.001 0L431.18 0Z" fill="#E93737"/></g></g></g></g></g><g id="Upper Body" transform="translate(376 277) scale(1 1)"><g id="Upper Body/Shrugg"><path id="Neck" fill-rule="evenodd" clip-rule="evenodd" d="M724.954 220C724.954 220 721.263 301.153 673.924 329.8C630.973 355.791 721.969 506.61 819.858 497.614C873.442 492.688 886 346.158 886 346.158C886 346.158 842.734 337.797 858.716 271.819L724.954 220Z" fill="#ecafa3"/><path id="Head" fill-rule="evenodd" clip-rule="evenodd" d="M803.337 302.516C739.877 294.841 694.078 253.116 687.665 183.898C669.216 186.835 664.865 138.765 670.003 123.323C675.146 107.859 691.933 116.901 691.933 116.901C691.933 116.901 693.327 113.235 694.303 109.226C722.025 -4.48555 799.67 0.0243587 799.67 0.0243587C942.344 7.45716 908.914 153.12 900.763 191.763C892.611 230.41 864.684 309.927 803.337 302.516Z" fill="#ecafa3"/><g id="Group 63"><path id="Fill 1" fill-rule="evenodd" clip-rule="evenodd" d="M1305.75 339.834C1305.75 339.834 1297.8 316.943 1352.75 282.834C1381.75 264.834 1411.26 215.343 1422.72 227.346C1434.18 239.349 1393.08 296.298 1393.08 296.298C1393.08 296.298 1427.87 276.034 1451.28 250.561C1474.7 225.087 1495.74 204.805 1495.74 204.805C1495.74 204.805 1511.3 198.898 1509.31 212.948C1507.32 226.997 1502.51 230.586 1502.51 230.586C1502.51 230.586 1513.56 230.335 1511.53 240.987C1509.5 251.64 1507.09 253.435 1507.09 253.435C1507.09 253.435 1515.18 254.245 1513.41 263.565C1511.63 272.887 1505.22 277.673 1505.22 277.673C1505.22 277.673 1510.91 280.278 1503.48 290.39C1496.06 300.502 1455.18 352.723 1431.1 367.274C1407.02 381.825 1347.75 402.834 1347.75 402.834C1347.75 402.834 1297.75 354.834 1305.75 339.834" fill="#ecafa3"/><path id="Fill 3" fill-rule="evenodd" clip-rule="evenodd" d="M1436.36 327.205L1435.14 324.464C1435.32 324.385 1453.16 316.279 1474.67 293.797C1489.55 278.234 1497.18 274.917 1500.96 274.875C1502.76 274.88 1503.6 275.557 1503.81 275.773L1501.69 277.894C1501.77 277.976 1501.82 278.004 1501.82 278.004C1501.77 277.976 1496.55 275.255 1476.83 295.871C1454.88 318.82 1437.11 326.873 1436.36 327.205" fill="black"/><path id="Fill 5" fill-rule="evenodd" clip-rule="evenodd" d="M1431.02 312.62L1429.48 310.048C1429.53 310.017 1434.65 306.948 1448.51 299.031C1457.95 293.634 1471.43 279.55 1481.27 269.266C1485.8 264.525 1489.72 260.432 1492.26 258.205C1500.7 250.823 1507.22 251.807 1507.5 251.854L1507.02 254.815C1506.96 254.812 1501.52 254.096 1494.24 260.463C1491.8 262.601 1487.92 266.65 1483.44 271.339C1473.47 281.756 1459.82 296.022 1450 301.637C1436.18 309.532 1431.07 312.59 1431.02 312.62" fill="black"/><path id="Fill 7" fill-rule="evenodd" clip-rule="evenodd" d="M1427 300.631L1425.5 298.035C1425.69 297.926 1444.55 286.963 1458.28 275.194C1471.07 264.226 1483.09 248.11 1489.54 239.453L1491.05 237.433C1497.32 229.074 1501.76 228.833 1502.25 228.833L1502.3 231.832C1502.27 231.834 1498.77 232.145 1493.45 239.234L1491.95 241.246C1485.42 249.997 1473.28 266.286 1460.23 277.472C1446.28 289.424 1427.19 300.521 1427 300.631" fill="black"/><path id="Fill 9" fill-rule="evenodd" clip-rule="evenodd" d="M1361.06 312.599L1359.45 310.068C1359.91 309.775 1370.83 302.875 1379.07 301.845C1386.44 300.923 1392.14 295.328 1392.19 295.272L1394.31 297.394C1394.05 297.654 1387.85 303.77 1379.44 304.822C1371.87 305.768 1361.16 312.531 1361.06 312.599" fill="black"/><path id="Fill 11" fill-rule="evenodd" clip-rule="evenodd" d="M1347.75 402.834C1347.75 402.834 1336.75 410.834 1317.75 449.834C1298.75 488.834 1229.75 655.834 1229.75 655.834L1180.56 482.224C1180.56 482.224 1277.16 347.867 1319.46 310.351C1361.75 272.834 1347.75 402.834 1347.75 402.834" fill="#ecafa3"/><g id="Group 15"><path id="Fill 13" fill-rule="evenodd" clip-rule="evenodd" d="M234.45 313.151C234.45 313.151 246.958 292.395 200.227 247.677C175.567 224.08 156.904 169.562 143.216 178.942C129.528 188.322 157.984 252.527 157.984 252.527C157.984 252.527 128.126 225.519 110.476 195.761C92.8257 166.005 76.4167 141.814 76.4167 141.814C76.4167 141.814 62.4127 132.825 61.4607 146.982C60.5087 161.139 64.4727 165.643 64.4727 165.643C64.4727 165.643 53.7177 163.118 53.5057 173.961C53.2947 184.802 55.2757 187.055 55.2757 187.055C55.2757 187.055 47.1907 186.177 47.0047 195.665C46.8197 205.151 52.1047 211.158 52.1047 211.158C52.1047 211.158 46.0007 212.532 51.1787 223.96C56.3577 235.386 85.5807 294.921 106.138 314.129C126.696 333.337 180.351 366.126 180.351 366.126C180.351 366.126 239.182 329.48 234.45 313.151" fill="#ecafa3"/></g><path id="Fill 16" fill-rule="evenodd" clip-rule="evenodd" d="M109.258 273.836C108.596 273.357 92.864 261.809 76.122 234.822C61.083 210.58 55.421 212.157 55.364 212.184C55.365 212.183 55.417 212.165 55.512 212.103L53.875 209.589C54.13 209.424 55.1 208.91 56.845 209.298C60.536 210.119 67.318 214.94 78.672 233.24C95.104 259.729 110.859 271.291 111.016 271.404L109.258 273.836Z" fill="black"/><path id="Fill 18" fill-rule="evenodd" clip-rule="evenodd" d="M117.492 260.667C117.449 260.627 113.085 256.581 101.195 246.004C92.7421 238.483 82.3311 221.707 74.7301 209.458C71.3081 203.943 68.3531 199.182 66.4031 196.584C60.6081 188.867 55.1321 188.424 55.0781 188.422L55.2061 185.424C55.4831 185.437 62.0701 185.817 68.8021 194.783C70.8321 197.486 73.8201 202.301 77.2791 207.876C84.7841 219.969 95.0611 236.531 103.189 243.762C115.11 254.367 119.49 258.429 119.533 258.468L117.492 260.667Z" fill="black"/><path id="Fill 20" fill-rule="evenodd" clip-rule="evenodd" d="M123.901 249.767C123.737 249.62 107.349 234.821 96.1718 220.248C85.7118 206.61 77.1898 188.163 72.6108 178.253L71.5568 175.975C67.8168 167.942 64.4588 166.916 64.4258 166.908L65.0918 163.983C65.5678 164.083 69.8668 165.237 74.2758 174.709L75.3348 176.995C79.8638 186.799 88.2948 205.048 98.5528 218.422C109.563 232.779 125.745 247.391 125.908 247.537L123.901 249.767Z" fill="black"/><path id="Fill 22" fill-rule="evenodd" clip-rule="evenodd" d="M185.956 275.089C185.865 275 176.786 266.172 169.576 263.685C161.56 260.92 156.756 253.655 156.555 253.348L159.067 251.708C159.111 251.775 163.533 258.427 170.554 260.849C178.404 263.558 187.664 272.563 188.054 272.944L185.956 275.089Z" fill="black"/><path id="Fill 24" fill-rule="evenodd" clip-rule="evenodd" d="M180.352 366.126C180.352 366.126 189.464 376.225 200.005 418.307C210.546 460.388 243.591 638.034 243.591 638.034L327.558 478.316C327.558 478.316 260.767 326.913 227.126 281.475C193.486 236.036 180.352 366.126 180.352 366.126" fill="#ecafa3"/><g id="Group 28"><mask id="mask083527ccd-2c2f-4ec4-ae46-72a8ce056e8d" mask-type="alpha" maskUnits="userSpaceOnUse" x="205" y="322" width="1050" height="691" fill="#ffffff"><path id="Clip 27" fill-rule="evenodd" clip-rule="evenodd" d="M205.598 322.055H1254.75V1012.16H205.598V322.055Z" fill="#ffffff"/></mask><g mask="url(#mask083527ccd-2c2f-4ec4-ae46-72a8ce056e8d)"><path id="Fill 26" fill-rule="evenodd" clip-rule="evenodd" d="M674.753 326.834C674.753 326.834 548.254 356.095 495.003 446.465C441.753 536.834 402.753 549.834 402.753 549.834C402.753 549.834 361.753 444.834 339.753 448.834C317.753 452.834 200.753 635.834 205.753 652.834C210.753 669.834 306.422 906.352 409.588 862.593C512.753 818.834 539.753 742.834 545.753 759.834C551.753 776.834 522.753 990.834 547.753 996.834C572.753 1002.83 714.967 1014.21 844.753 1011.83C953.753 1009.83 1019.75 1014.83 1024.75 968.834C1029.75 922.834 1012.75 762.834 1012.75 762.834C1012.75 762.834 1067.75 830.834 1115.75 808.834C1163.75 786.834 1254.75 713.834 1254.75 713.834L1184.75 468.834L1116.75 533.834C1116.75 533.834 1040.75 406.834 995.753 382.834C950.753 358.834 863.243 322.055 863.243 322.055C863.243 322.055 812.753 365.834 790.753 396.834C768.753 427.834 762.753 443.834 762.753 443.834C762.753 443.834 713.753 349.834 674.753 326.834" fill="#F9C818"/></g></g><g id="Pattern 1"><path id="Fill 29" fill-rule="evenodd" clip-rule="evenodd" d="M581.754 612.834L644.754 692.834C644.754 692.834 653.754 657.834 635.754 629.834C617.754 601.834 581.754 612.834 581.754 612.834" fill="#FFE89D"/><path id="Fill 31" fill-rule="evenodd" clip-rule="evenodd" d="M890.754 387.834L953.754 467.834C953.754 467.834 962.754 432.834 944.754 404.834C926.754 376.834 890.754 387.834 890.754 387.834" fill="#FFE89D"/><path id="Fill 33" fill-rule="evenodd" clip-rule="evenodd" d="M605.754 893.834L668.754 973.834C668.754 973.834 677.754 938.834 659.754 910.834C641.754 882.834 605.754 893.834 605.754 893.834" fill="#FFE89D"/><path id="Fill 35" fill-rule="evenodd" clip-rule="evenodd" d="M884.754 737.834L947.754 817.834C947.754 817.834 956.754 782.834 938.754 754.834C920.754 726.834 884.754 737.834 884.754 737.834" fill="#FFE89D"/><path id="Fill 37" fill-rule="evenodd" clip-rule="evenodd" d="M770.667 905.632L838.574 829.753C838.574 829.753 802.545 826.938 778.078 849.506C753.61 872.074 770.667 905.632 770.667 905.632" fill="#FFE89D"/><path id="Fill 39" fill-rule="evenodd" clip-rule="evenodd" d="M733.667 702.632L801.574 626.753C801.574 626.753 765.545 623.938 741.078 646.506C716.61 669.074 733.667 702.632 733.667 702.632" fill="#FFE89D"/><path id="Fill 41" fill-rule="evenodd" clip-rule="evenodd" d="M877.924 563.079L853.766 662C853.766 662 886.873 647.512 897.825 616.078C908.777 584.645 877.924 563.079 877.924 563.079" fill="#FFE89D"/><path id="Fill 43" fill-rule="evenodd" clip-rule="evenodd" d="M1019.92 493.079L995.766 592C995.766 592 1028.87 577.512 1039.82 546.078C1050.78 514.645 1019.92 493.079 1019.92 493.079" fill="#FFE89D"/><path id="Fill 45" fill-rule="evenodd" clip-rule="evenodd" d="M586.949 808.488L686.698 788.014C686.698 788.014 659.441 764.286 626.344 767.831C593.247 771.376 586.949 808.488 586.949 808.488" fill="#FFE89D"/><path id="Fill 47" fill-rule="evenodd" clip-rule="evenodd" d="M509.519 680.905L409.547 661.55C409.547 661.55 425.616 693.919 457.542 703.342C489.467 712.763 509.519 680.905 509.519 680.905" fill="#FFE89D"/><path id="Fill 49" fill-rule="evenodd" clip-rule="evenodd" d="M294.785 581.219L243.168 668.995C243.168 668.995 279.045 664.654 298.583 637.704C318.122 610.755 294.785 581.219 294.785 581.219" fill="#FFE89D"/><path id="Fill 51" fill-rule="evenodd" clip-rule="evenodd" d="M315.902 775.493L401.41 830.788C401.41 830.788 398.593 794.759 372.497 774.095C346.402 753.431 315.902 775.493 315.902 775.493" fill="#FFE89D"/><path id="Fill 53" fill-rule="evenodd" clip-rule="evenodd" d="M588.73 481.956L662.362 411.618C662.362 411.618 626.663 405.995 600.506 426.582C574.349 447.168 588.73 481.956 588.73 481.956" fill="#FFE89D"/><path id="Fill 55" fill-rule="evenodd" clip-rule="evenodd" d="M449.348 564.968L544.748 529.362C544.748 529.362 514.159 510.118 482.004 518.724C449.849 527.328 449.348 564.968 449.348 564.968" fill="#FFE89D"/><path id="Fill 57" fill-rule="evenodd" clip-rule="evenodd" d="M761.348 528.968L856.748 493.362C856.748 493.362 826.159 474.118 794.004 482.724C761.849 491.328 761.348 528.968 761.348 528.968" fill="#FFE89D"/><path id="Fill 59" fill-rule="evenodd" clip-rule="evenodd" d="M1028.35 706.968L1123.75 671.362C1123.75 671.362 1093.16 652.118 1061 660.724C1028.85 669.328 1028.35 706.968 1028.35 706.968" fill="#FFE89D"/><path id="Fill 61" fill-rule="evenodd" clip-rule="evenodd" d="M867.348 976.968L962.748 941.362C962.748 941.362 932.159 922.118 900.004 930.724C867.849 939.328 867.348 976.968 867.348 976.968" fill="#FFE89D"/></g></g></g></g><g id="Expression" transform="translate(1098 360) scale(1 1)"><g id="Expression/Surprised"><g id="Group 124"><path id="Stroke 114" d="M123.94 52.5156L127.749 53.7376L127.377 54.9309C127.077 55.9042 126.744 57.0178 126.384 58.2528C125.356 61.7837 124.327 65.576 123.368 69.4789C122.301 73.8175 121.387 78.0249 120.672 81.9976L120.465 83.1739C118.727 93.2775 118.482 100.993 120.034 105.142L120.126 105.377C129.004 127.34 116.948 138.478 91.6439 130.679L90.873 130.436L92.0921 126.627C114.886 133.921 124.027 125.703 116.417 106.876C114.322 101.694 114.645 92.8992 116.735 81.2889C117.466 77.2272 118.398 72.9393 119.483 68.5239C120.349 65.0027 121.269 61.5727 122.196 58.338L122.543 57.1344C122.752 56.4175 122.952 55.7405 123.143 55.1067L123.631 53.5023L123.94 52.5156Z" fill="black"/><path id="Stroke 122" d="M25.1855 205.534L27.1425 202.045L27.8567 202.435L28.5118 202.783C29.5036 203.305 30.6327 203.881 31.8877 204.498L32.4332 204.765C36.6543 206.821 41.3224 208.878 46.301 210.798C57.7489 215.212 69.0606 218.225 79.5848 219.202C84.3541 219.645 88.8741 219.656 93.1069 219.202L93.9496 219.105L94.4385 223.075C89.6635 223.663 84.5751 223.683 79.2149 223.185C68.2771 222.169 56.6257 219.066 44.8619 214.53C39.7712 212.567 35.0001 210.465 30.6815 208.361L29.0484 207.554C28.354 207.206 27.7021 206.873 27.0948 206.556L25.9633 205.958L25.1855 205.534Z" fill="black"/></g><g id="Group 31"><path id="Fill 11" fill-rule="evenodd" clip-rule="evenodd" d="M107.414 155.348C107.414 158.595 104.782 161.228 101.534 161.228C98.2873 161.228 95.6543 158.595 95.6543 155.348C95.6543 152.1 98.2873 149.468 101.534 149.468C104.782 149.468 107.414 152.1 107.414 155.348" fill="black"/><path id="Fill 15" fill-rule="evenodd" clip-rule="evenodd" d="M44.2617 76.4573L68.2617 60.4573Z" fill="white"/><path id="Fill 17" fill-rule="evenodd" clip-rule="evenodd" d="M45.0937 77.7052L43.4297 75.2092L67.4297 59.2092L69.0937 61.7052L45.0937 77.7052Z" fill="black"/><path id="Fill 19" fill-rule="evenodd" clip-rule="evenodd" d="M55.2617 82.4573L79.2617 66.4573Z" fill="white"/><path id="Fill 21" fill-rule="evenodd" clip-rule="evenodd" d="M56.0937 83.7052L54.4297 81.2092L78.4297 65.2092L80.0937 67.7052L56.0937 83.7052Z" fill="black"/><path id="Fill 23" fill-rule="evenodd" clip-rule="evenodd" d="M138.262 84.4573L162.262 68.4573Z" fill="white"/><path id="Fill 25" fill-rule="evenodd" clip-rule="evenodd" d="M139.094 85.7052L137.43 83.2092L161.43 67.2092L163.094 69.7052L139.094 85.7052Z" fill="black"/><path id="Fill 27" fill-rule="evenodd" clip-rule="evenodd" d="M149.262 90.4573L173.262 74.4573Z" fill="white"/><path id="Fill 29" fill-rule="evenodd" clip-rule="evenodd" d="M150.094 91.7052L148.43 89.2092L172.43 73.2092L174.094 75.7052L150.094 91.7052Z" fill="black"/></g><path id="Stroke 116" d="M57.1285 14.4421C60.1764 14.0301 63.0083 13.8935 65.6004 14.0855C69.2487 14.3555 74.081 15.3352 79.9181 16.8745C81.7033 17.3453 83.5577 17.8626 85.4649 18.4191C88.6686 19.3537 91.8692 20.3532 94.9199 21.3527L96.9256 22.0174L98.9181 22.6958C101.786 23.697 103.299 26.8334 102.298 29.7012C101.322 32.4974 98.3161 34.0059 95.5084 33.1516L95.22 33.0559L94.2873 32.7365C93.4619 32.4562 92.5248 32.1433 91.4951 31.8059C88.5515 30.8415 85.4629 29.8771 82.384 28.9788C80.5647 28.448 78.8014 27.9561 77.1132 27.5109L76.0064 27.223C71.2755 26.01 67.4031 25.249 64.7881 25.0555C63.0338 24.9255 60.9444 25.0264 58.6021 25.343C55.7853 25.7238 52.7251 26.3971 49.5812 27.2801C48.0178 27.7191 46.5196 28.1857 45.1264 28.6553L44.4388 28.8903C43.9991 29.0426 43.598 29.1855 43.2397 29.3165L42.5088 29.5902C39.6807 30.6988 36.4895 29.3049 35.3809 26.4769C34.2723 23.6488 35.6661 20.4575 38.4942 19.3489L39.067 19.1306C39.5214 18.9611 40.1178 18.7457 40.8391 18.4959C42.619 17.8795 44.5603 17.2646 46.607 16.6898C50.2087 15.6783 53.7523 14.8985 57.1285 14.4421Z" fill="black"/><path id="Stroke 118" d="M154.327 30.5147L155.651 30.4798C161.093 30.3575 165.559 30.5269 168.875 31.0811C170.705 31.3869 172.611 31.8997 174.594 32.5956C177.537 33.6288 180.594 35.0454 183.711 36.7499C185.7 37.8379 187.616 38.9893 189.413 40.1493L190.176 40.6469C191.395 41.4503 192.302 42.0855 192.826 42.4703C195.216 44.2255 195.731 47.5858 193.975 49.9757C192.268 52.301 189.04 52.851 186.666 51.2623L185.925 50.7372L185.312 50.3137C184.988 50.0927 184.639 49.8583 184.267 49.6127C182.485 48.4383 180.555 47.2627 178.559 46.1711C175.917 44.7265 173.371 43.547 171.036 42.7273C169.604 42.2242 168.283 41.8691 167.105 41.6722C164.384 41.2175 160.045 41.0855 154.649 41.2478C151.359 41.3469 147.827 41.549 144.228 41.8238L142.668 41.9472C141.646 42.0308 140.663 42.1167 139.729 42.203L137.052 42.4664C134.104 42.7859 131.455 40.6551 131.135 37.7072C130.824 34.8329 132.841 32.243 135.675 31.8192L136.469 31.7309L137.68 31.6107L138.022 31.578C139.675 31.4208 141.49 31.2636 143.41 31.117C147.162 30.8305 150.854 30.6192 154.327 30.5147Z" fill="black"/></g></g><g id="Hairstyle" transform="translate(607 33) scale(1 1)"><g id="Hairstyle/Curly Bun"><g id="Group 11"><g id="Group 3"><mask id="mask0cb0f9f0a-86b5-4eb7-8694-18bcc75a6937" mask-type="alpha" maskUnits="userSpaceOnUse" x="483" y="49" width="216" height="153" fill="#ffffff"><path id="Clip 2" fill-rule="evenodd" clip-rule="evenodd" d="M483.328 49H698.919V201.584H483.328V49Z" fill="#ffffff"/></mask><g mask="url(#mask0cb0f9f0a-86b5-4eb7-8694-18bcc75a6937)"><path id="Fill 1" fill-rule="evenodd" clip-rule="evenodd" d="M660.964 199.644C660.964 199.644 656.9 190.215 679.049 189.185C701.199 188.155 709.956 142.826 678.019 122.736C646.082 102.647 680.595 81.5284 631.659 56.2884C582.724 31.0474 558.514 79.4674 558.514 79.4674C558.514 79.4674 507.004 59.3784 488.975 100.587C470.946 141.795 501.852 158.279 501.852 158.279C501.852 158.279 481.248 172.187 497.732 189.185C514.215 206.184 558.697 187.293 566.075 196.481C573.452 205.669 660.964 199.644 660.964 199.644" fill="#711515"/></g></g><path id="Fill 4" fill-rule="evenodd" clip-rule="evenodd" d="M512.848 209.085C512.848 209.085 528.438 180.366 565.525 177.683C602.613 175 619.251 188.172 623.552 209.085C627.853 229.998 512.848 209.085 512.848 209.085" fill="white"/><g id="Group 8"><mask id="mask1cb0f9f0a-86b5-4eb7-8694-18bcc75a6937" mask-type="alpha" maskUnits="userSpaceOnUse" x="434" y="197" width="251" height="222" fill="#ffffff"><path id="Clip 7" fill-rule="evenodd" clip-rule="evenodd" d="M434 197.303H684.515V418.595H434V197.303Z" fill="#ffffff"/></mask><g mask="url(#mask1cb0f9f0a-86b5-4eb7-8694-18bcc75a6937)"><path id="Fill 6" fill-rule="evenodd" clip-rule="evenodd" d="M456.323 396.258C456.323 396.258 454.778 389.562 464.565 380.29C474.352 371.018 470.746 328.264 493.926 320.537C517.106 312.811 555.739 273.148 573.767 273.148C591.796 273.148 622.703 289.631 635.065 288.601C647.428 287.571 663.911 312.296 664.941 325.173C665.971 338.051 682.856 361.09 672.353 418.595C672.353 418.595 684.515 399.349 684.515 376.684C684.515 354.019 681.425 348.868 682.97 316.417C684.515 283.965 680.91 250.483 657.215 235.03C633.52 219.576 618.582 191.246 582.009 198.457C545.437 205.669 517.106 196.912 495.471 220.092C479.558 237.142 455.808 248.938 450.657 283.965C445.858 316.597 419.362 331.686 445.054 366.805C445.054 366.805 456.323 384.926 456.323 396.258Z" fill="#711515"/></g></g><path id="Fill 9" fill-rule="evenodd" clip-rule="evenodd" d="M515.502 206.745C515.502 206.745 522.323 178.486 567.323 175.486C612.323 172.486 621.086 191.87 623.205 207.678C623.205 207.678 604.716 195.311 581.02 200.399C557.323 205.486 530.681 202.004 515.502 206.745" fill="#56ACF6"/></g></g></g><g id="Accessories" transform="translate(1051 393) scale(1 1)"><g id="Accessories/Red Glasses"><g id="Group 136"><path id="Stroke 128" fill-rule="evenodd" clip-rule="evenodd" d="M68.0361 34.6774C68.0361 13.583 85.138 -3.51855 106.233 -3.51855C127.328 -3.51855 144.429 13.5828 144.429 34.6774C144.429 55.7727 127.328 72.8734 106.233 72.8734C85.1377 72.8734 68.0361 55.7726 68.0361 34.6774ZM135.429 34.6774C135.429 18.5534 122.357 5.48145 106.233 5.48145C90.1085 5.48145 77.0361 18.5536 77.0361 34.6774C77.0361 50.8019 90.1082 63.8734 106.233 63.8734C122.358 63.8734 135.429 50.8022 135.429 34.6774Z" fill="#E93737"/><path id="Stroke 130" fill-rule="evenodd" clip-rule="evenodd" d="M161.957 43.7849C161.957 22.6897 179.058 5.58887 200.154 5.58887C221.249 5.58887 238.35 22.6896 238.35 43.7849C238.35 64.8801 221.249 81.9809 200.154 81.9809C179.058 81.9809 161.957 64.88 161.957 43.7849ZM229.35 43.7849C229.35 27.6601 216.278 14.5889 200.154 14.5889C184.029 14.5889 170.957 27.6604 170.957 43.7849C170.957 59.9094 184.029 72.9809 200.154 72.9809C216.278 72.9809 229.35 59.9096 229.35 43.7849Z" fill="#E93737"/><path id="Stroke 132" d="M17.3582 7.30992C18.2541 5.07026 20.7475 3.94707 23.0032 4.72688L23.2076 4.80303L73.2076 24.803C75.5151 25.726 76.6375 28.3449 75.7145 30.6524C74.8186 32.8921 72.3252 34.0153 70.0695 33.2355L69.8651 33.1593L19.8651 13.1593C17.5576 12.2363 16.4352 9.61745 17.3582 7.30992Z" fill="#E93737"/><path id="Stroke 134" d="M134.843 36.5654C135.11 34.166 137.218 32.4181 139.602 32.5722L139.814 32.5908L166.034 35.5088C168.504 35.7836 170.283 38.0088 170.008 40.4789C169.741 42.8783 167.634 44.6262 165.249 44.4721L165.038 44.4535L138.818 41.5355C136.348 41.2606 134.569 39.0354 134.843 36.5654Z" fill="#E93737"/></g></g></g><g id="Facial Hair" transform="translate(1061 394) scale(212 211)"><g id="Facial Hair/None" stroke="none" stroke-width="1" fill="none" fill-rule="evenodd" fill-opacity="0"/></g></g></g></g></svg>