<svg width="139" height="113" viewBox="0 0 139 113" fill="none" xmlns="http://www.w3.org/2000/svg">
<mask id="path-1-inside-1_19_149" fill="white">
<path fill-rule="evenodd" clip-rule="evenodd" d="M38.4267 97.9554L20.5851 110.159L29.5368 93.9704L11.4277 96.7705L20.3794 80.5821L1.82361 82.7291L19.6836 70.5131C19.2077 68.5514 19.956 66.4133 21.721 65.2061L99.1318 12.2582C101.411 10.6992 104.523 11.2831 106.082 13.5624L106.802 14.6161L120.039 5.56232L112.346 20.1188L128.504 17.9386L120.417 31.9194L136.576 29.7392L123.284 38.8303C124.303 41.0093 123.624 43.6674 121.574 45.0696L44.1635 98.0176C42.38 99.2375 40.0868 99.1453 38.4267 97.9554Z"/>
</mask>
<path fill-rule="evenodd" clip-rule="evenodd" d="M38.4267 97.9554L20.5851 110.159L29.5368 93.9704L11.4277 96.7705L20.3794 80.5821L1.82361 82.7291L19.6836 70.5131C19.2077 68.5514 19.956 66.4133 21.721 65.2061L99.1318 12.2582C101.411 10.6992 104.523 11.2831 106.082 13.5624L106.802 14.6161L120.039 5.56232L112.346 20.1188L128.504 17.9386L120.417 31.9194L136.576 29.7392L123.284 38.8303C124.303 41.0093 123.624 43.6674 121.574 45.0696L44.1635 98.0176C42.38 99.2375 40.0868 99.1453 38.4267 97.9554Z" fill="#FEFFC0"/>
<path d="M20.5851 110.159L19.71 109.675L21.1497 110.984L20.5851 110.159ZM38.4267 97.9554L39.0093 97.1426L38.4402 96.7346L37.8622 97.13L38.4267 97.9554ZM29.5368 93.9704L30.4119 94.4543L31.3982 92.6707L29.384 92.9821L29.5368 93.9704ZM11.4277 96.7705L10.5526 96.2866L9.56631 98.0702L11.5805 97.7588L11.4277 96.7705ZM20.3794 80.5821L21.2545 81.066L22.1949 79.3654L20.2644 79.5887L20.3794 80.5821ZM1.82361 82.7291L1.25905 81.9037L1.93855 83.7225L1.82361 82.7291ZM19.6836 70.5131L20.2482 71.3385L20.8183 70.9486L20.6554 70.2774L19.6836 70.5131ZM106.802 14.6161L105.977 15.1807L106.541 16.0061L107.367 15.4415L106.802 14.6161ZM120.039 5.56232L120.923 6.02959L119.475 4.73692L120.039 5.56232ZM112.346 20.1188L111.462 19.6515L110.554 21.3697L112.48 21.1098L112.346 20.1188ZM128.504 17.9386L129.37 18.4393L130.39 16.675L128.371 16.9475L128.504 17.9386ZM120.417 31.9194L119.552 31.4187L118.531 33.1829L120.551 32.9104L120.417 31.9194ZM136.576 29.7392L137.14 30.5646L136.442 28.7481L136.576 29.7392ZM123.284 38.8303L122.72 38.005L122.019 38.4844L122.378 39.2538L123.284 38.8303ZM21.1497 110.984L38.9913 98.7807L37.8622 97.13L20.0206 109.333L21.1497 110.984ZM28.6617 93.4865L19.71 109.675L21.4602 110.643L30.4119 94.4543L28.6617 93.4865ZM11.5805 97.7588L29.6896 94.9586L29.384 92.9821L11.2749 95.7822L11.5805 97.7588ZM19.5043 80.0982L10.5526 96.2866L12.3028 97.2544L21.2545 81.066L19.5043 80.0982ZM1.93855 83.7225L20.4943 81.5755L20.2644 79.5887L1.70867 81.7358L1.93855 83.7225ZM19.119 69.6878L1.25905 81.9037L2.38817 83.5545L20.2482 71.3385L19.119 69.6878ZM20.6554 70.2774C20.2743 68.7063 20.8749 66.9964 22.2855 66.0315L21.1564 64.3808C19.0372 65.8303 18.1411 68.3965 18.7118 70.7489L20.6554 70.2774ZM22.2855 66.0315L99.6963 13.0836L98.5672 11.4328L21.1564 64.3808L22.2855 66.0315ZM99.6963 13.0836C101.52 11.8364 104.009 12.3035 105.256 14.1269L106.907 12.9978C105.036 10.2627 101.302 9.56203 98.5672 11.4328L99.6963 13.0836ZM105.256 14.1269L105.977 15.1807L107.628 14.0516L106.907 12.9978L105.256 14.1269ZM107.367 15.4415L120.604 6.38771L119.475 4.73692L106.238 13.7908L107.367 15.4415ZM119.155 5.09506L111.462 19.6515L113.23 20.5861L120.923 6.02959L119.155 5.09506ZM112.48 21.1098L128.638 18.9296L128.371 16.9475L112.212 19.1278L112.48 21.1098ZM127.639 17.4379L119.552 31.4187L121.283 32.4201L129.37 18.4393L127.639 17.4379ZM120.551 32.9104L136.709 30.7302L136.442 28.7481L120.284 30.9284L120.551 32.9104ZM136.011 28.9138L122.72 38.005L123.849 39.6557L137.14 30.5646L136.011 28.9138ZM122.378 39.2538C123.193 40.9962 122.649 43.123 121.01 44.2442L122.139 45.895C124.6 44.2118 125.413 41.0223 124.19 38.4069L122.378 39.2538ZM121.01 44.2442L43.599 97.1922L44.7281 98.843L122.139 45.895L121.01 44.2442ZM43.599 97.1922C42.1734 98.1672 40.3386 98.0954 39.0093 97.1426L37.8442 98.7681C39.835 100.195 42.5865 100.308 44.7281 98.843L43.599 97.1922Z" fill="#2C2C2C" mask="url(#path-1-inside-1_19_149)"/>
</svg>
